<?xml version="1.0" standalone="no"?>
<!DOCTYPE svg PUBLIC "-//W3C//DTD SVG 20010904//EN"
 "http://www.w3.org/TR/2001/REC-SVG-20010904/DTD/svg10.dtd">
<svg version="1.0" xmlns="http://www.w3.org/2000/svg"
 width="600.000000pt" height="600.000000pt" viewBox="0 0 600.000000 600.000000"
 preserveAspectRatio="xMidYMid meet">
<metadata>
Created by potrace 1.11, written by Peter Selinger 2001-2013
</metadata>
<g transform="translate(0.000000,600.000000) scale(0.100000,-0.100000)"
fill="#000000" stroke="none">
<path d="M1819 5716 c6 -7 8 -16 4 -19 -3 -4 0 -7 8 -7 28 0 119 -188 119
-246 0 -7 5 -16 11 -19 10 -7 8 121 -3 141 -2 5 -10 28 -17 50 -18 56 -49 90
-94 102 -31 9 -36 8 -28 -2z"/>
<path d="M4115 5713 c-16 -9 -33 -22 -38 -29 -4 -7 -15 -21 -25 -30 -9 -10
-16 -20 -15 -23 1 -3 -3 -24 -9 -46 -6 -22 -12 -57 -13 -77 0 -21 -4 -40 -7
-44 -8 -8 1 -34 12 -34 5 0 11 15 15 33 9 45 28 100 37 112 4 5 8 16 8 23 0 8
16 35 36 59 44 53 44 79 -1 56z"/>
<path d="M1718 5670 c-14 -10 -27 -17 -30 -15 -3 3 -16 -16 -29 -41 -18 -36
-24 -63 -24 -117 0 -40 4 -72 10 -74 6 -2 11 5 11 14 1 18 8 63 15 93 2 8 10
21 17 28 6 7 12 20 12 28 0 8 5 12 10 9 6 -3 13 1 16 10 4 8 14 14 23 13 19
-3 61 -43 61 -58 0 -5 4 -10 9 -10 5 0 17 -21 27 -47 10 -27 21 -53 25 -58 11
-14 -6 -39 -20 -31 -20 13 -29 -3 -21 -38 5 -22 3 -45 -6 -65 -8 -18 -13 -35
-13 -39 1 -4 0 -9 -1 -12 -3 -9 -9 -44 -14 -85 -5 -41 -7 -49 -28 -145 -6 -30
-12 -57 -13 -60 -10 -49 -67 -173 -107 -235 -28 -43 -98 -121 -98 -109 0 4 -8
0 -18 -9 -10 -10 -22 -14 -25 -10 -4 3 -7 1 -7 -6 0 -7 -4 -9 -10 -6 -5 3 -10
1 -10 -4 0 -6 -3 -10 -7 -9 -18 5 -146 -76 -136 -86 4 -3 -1 -6 -10 -6 -9 0
-17 -4 -17 -9 0 -29 -66 -19 -76 12 -6 19 -7 19 -17 2 -7 -13 -6 -24 2 -36 6
-11 11 -25 11 -33 0 -8 4 -16 8 -18 4 -1 18 -18 31 -35 21 -31 22 -41 19 -168
-2 -74 -5 -135 -8 -135 -3 0 -5 -21 -5 -47 1 -27 -1 -52 -4 -58 -3 -5 -6 -19
-7 -30 -1 -11 -14 -74 -29 -140 -15 -66 -29 -136 -32 -155 -6 -51 -9 -230 -3
-230 3 0 6 -29 6 -65 1 -36 -3 -65 -8 -65 -5 0 -6 -4 -3 -10 3 -5 1 -10 -4
-10 -6 0 -19 -8 -29 -17 -33 -32 -72 -63 -72 -58 0 3 -8 -3 -18 -12 -11 -10
-17 -21 -15 -25 2 -5 -2 -8 -10 -8 -7 0 -14 -6 -14 -13 0 -14 34 -17 54 -4 6
4 15 2 19 -4 4 -8 9 -7 15 2 7 12 9 12 9 0 0 -10 3 -11 13 -2 8 6 17 8 21 4
12 -12 36 -12 36 0 0 8 3 8 8 2 8 -12 22 -13 39 -2 6 4 15 2 19 -4 4 -8 9 -7
15 2 5 8 9 9 9 3 0 -12 38 -13 56 -1 6 3 14 3 18 0 12 -12 36 -12 36 0 0 8 3
8 8 2 4 -6 16 -11 27 -11 11 0 23 5 27 11 5 7 8 7 8 0 0 -6 11 -11 25 -11 14
0 25 5 25 11 0 5 4 4 9 -3 11 -17 21 -17 32 0 5 7 9 8 9 2 0 -6 7 -11 15 -11
8 0 15 5 15 11 0 7 3 7 8 1 10 -14 52 -15 52 -1 0 7 3 8 8 1 4 -6 16 -11 27
-11 11 0 23 5 27 11 5 6 8 7 8 0 0 -6 13 -11 30 -11 18 -1 27 2 23 9 -3 6 -1
7 6 3 21 -14 63 -18 56 -5 -6 8 -2 8 14 0 16 -9 21 -9 21 1 0 10 3 9 9 -1 8
-12 12 -12 25 -2 9 8 16 9 16 4 0 -5 13 -10 30 -10 16 0 27 5 23 10 -4 6 -1 7
8 2 20 -13 49 -13 49 -1 0 7 3 8 8 1 10 -14 64 -16 55 -2 -4 6 -1 7 8 2 21
-14 60 -15 53 -3 -5 7 -2 8 7 2 19 -11 58 -13 65 -2 3 4 14 3 25 -3 15 -7 24
-7 34 1 8 7 15 7 19 1 6 -10 31 -9 41 1 11 10 45 -4 38 -16 -3 -6 2 -3 13 6
15 13 23 15 31 7 8 -8 17 -8 31 0 10 6 22 7 26 4 4 -4 29 -8 55 -9 57 -1 60
10 15 54 -17 16 -46 51 -65 78 -19 27 -37 51 -40 54 -11 10 -99 198 -99 213 0
9 -5 19 -10 22 -6 4 -8 11 -4 16 3 5 1 15 -5 22 -5 7 -12 24 -14 37 -3 14 -10
37 -15 51 -6 15 -9 29 -6 32 2 2 0 16 -5 30 -6 14 -12 43 -15 64 -2 21 -7 49
-10 63 -8 32 -14 76 -22 175 -4 44 -8 82 -10 83 -7 9 -43 -12 -84 -50 -25 -24
-48 -42 -52 -40 -5 1 -8 -3 -8 -8 0 -6 -11 -15 -25 -22 -13 -6 -22 -15 -19
-19 3 -5 -2 -9 -10 -9 -9 0 -16 -4 -16 -8 0 -5 -19 -22 -42 -39 -24 -17 -53
-39 -64 -49 -12 -11 -36 -30 -54 -44 -18 -14 -44 -36 -56 -49 l-23 -24 -6 29
c-4 16 -8 34 -10 40 -2 6 2 17 8 23 8 8 8 11 0 11 -7 0 -10 13 -7 33 2 17 6
57 9 87 3 30 8 71 11 90 3 19 7 46 9 60 2 14 4 25 5 25 2 0 6 16 14 55 3 14 8
36 11 50 4 14 8 36 11 50 3 14 8 34 11 45 4 11 8 25 9 30 1 6 16 62 32 125 17
63 33 126 36 140 2 14 9 49 15 79 10 47 8 209 -2 251 -2 8 -7 26 -10 40 -13
51 -16 96 -8 109 8 12 15 11 43 -6 24 -14 34 -28 38 -54 l6 -34 18 33 c16 31
22 48 30 92 2 8 -5 30 -16 48 -10 18 -18 39 -18 46 0 8 -3 16 -7 18 -11 4 -88
165 -102 213 -29 95 -56 152 -87 180 -39 37 -82 43 -116 15z m2 -1406 c6 -6
11 -29 13 -52 1 -23 6 -42 10 -42 4 0 3 -8 -2 -19 -6 -10 -8 -21 -4 -24 7 -8
6 -115 -2 -238 -4 -56 -3 -111 3 -132 10 -36 9 -38 -36 -74 -26 -21 -48 -41
-50 -45 -8 -17 -30 -6 -64 30 -20 20 -50 48 -68 61 -17 13 -45 44 -61 67 l-30
44 19 42 c11 24 23 54 27 68 4 14 11 30 16 36 5 6 10 19 12 30 1 10 6 24 10
31 4 6 10 30 13 52 9 65 -18 52 -69 -32 -44 -72 -63 -114 -59 -129 1 -5 -1 -8
-6 -8 -4 0 -7 -35 -6 -77 1 -102 1 -101 23 -108 43 -13 183 -185 151 -185 -10
0 -37 -20 -76 -57 -13 -13 -26 -23 -28 -23 -3 0 -16 -9 -28 -19 -57 -49 -67
-58 -98 -81 -18 -14 -42 -33 -53 -43 -23 -19 -38 -8 -32 25 2 10 0 18 -4 18
-9 0 -12 210 -3 225 4 6 8 17 9 26 1 9 8 29 14 45 7 16 14 35 16 42 1 6 5 18
6 25 2 6 7 19 10 27 22 53 30 76 29 83 -1 4 3 7 10 7 6 0 9 3 6 6 -4 3 10 38
29 77 20 40 35 74 34 76 -2 2 1 7 6 10 4 3 14 16 21 29 31 56 38 67 50 80 6 7
12 17 12 20 0 6 72 43 90 47 3 0 15 6 28 13 12 7 22 10 22 7 0 -3 12 7 28 23
27 29 44 34 62 16z m451 -346 c1 -7 3 -35 4 -63 2 -27 6 -61 9 -75 3 -14 8
-44 10 -65 24 -190 102 -377 194 -458 25 -23 28 -40 9 -56 -10 -8 -17 -7 -25
1 -7 7 -12 8 -12 2 0 -11 -231 -11 -250 1 -8 5 -11 4 -7 -1 6 -11 -39 -11 -49
-1 -4 3 -15 2 -25 -3 -12 -7 -19 -6 -22 3 -3 9 -7 9 -17 0 -9 -8 -19 -9 -32
-2 -13 7 -18 6 -18 -2 0 -9 -3 -9 -14 0 -10 8 -16 9 -21 1 -4 -7 -12 -7 -26 0
-10 6 -19 7 -19 2 0 -10 -53 -7 -71 3 -7 5 -10 4 -6 -1 3 -5 -3 -10 -13 -10
-10 0 -16 4 -13 9 3 5 -4 4 -16 -2 -11 -7 -21 -8 -21 -4 0 10 -41 10 -57 0 -7
-4 -15 -3 -18 3 -5 8 -11 8 -20 0 -10 -8 -15 -8 -20 0 -5 8 -10 8 -20 0 -9 -8
-15 -8 -20 0 -3 6 -12 7 -18 3 -15 -9 -49 -9 -65 1 -6 4 -12 3 -12 -2 0 -10
-30 -9 -48 2 -6 4 -12 3 -12 -2 0 -6 -9 -8 -20 -5 -11 3 -20 14 -20 25 0 21
67 88 88 88 7 0 11 3 9 8 -2 4 7 17 20 29 13 12 23 20 23 18 0 -2 23 17 51 43
28 26 63 55 78 64 14 10 22 18 17 18 -5 0 4 10 20 22 16 12 39 33 52 46 12 12
22 21 22 18 0 -2 15 10 33 27 18 18 59 55 92 82 32 28 71 62 87 78 16 15 30
27 33 27 2 0 31 25 63 56 33 31 63 54 67 52 3 -1 11 5 16 15 12 20 29 23 30 5z"/>
<path d="M2075 3815 c-81 -73 -127 -114 -170 -150 -20 -16 -58 -51 -85 -76
-28 -26 -50 -44 -50 -41 0 3 -13 -8 -28 -24 -16 -16 -55 -51 -87 -79 -32 -27
-70 -61 -85 -75 -15 -14 -43 -40 -63 -57 -19 -18 -40 -33 -47 -33 -6 0 -9 -4
-6 -9 3 -5 -1 -12 -10 -15 -8 -3 -13 -10 -10 -14 5 -8 27 -7 88 1 14 2 32 1
39 -3 6 -4 24 -4 39 0 15 4 34 3 45 -2 13 -8 16 -7 10 2 -6 9 -3 9 13 1 12 -6
23 -7 26 -3 6 10 59 7 77 -3 8 -6 10 -4 4 4 -6 10 -3 11 12 2 11 -6 23 -7 27
-4 9 9 76 10 76 1 0 -4 11 -3 24 2 13 5 27 6 30 3 8 -8 95 -7 103 0 3 4 12 2
19 -4 8 -7 14 -7 19 1 4 7 12 7 24 0 10 -5 21 -6 25 -3 10 10 46 11 52 1 3 -4
14 -3 25 2 14 8 19 7 19 -1 0 -8 4 -9 13 0 10 7 17 7 24 0 8 -8 13 -7 18 1 5
8 10 8 20 0 7 -6 20 -7 30 -4 9 4 13 10 8 13 -16 12 -88 142 -85 154 1 4 -3 7
-10 7 -6 0 -9 3 -6 6 4 3 -2 24 -12 47 -11 24 -21 56 -24 72 -7 36 -11 55 -26
120 -10 46 -18 105 -24 179 -1 17 -7 31 -12 33 -5 1 -36 -22 -69 -52z"/>
<path d="M4155 5668 c-17 -10 -27 -18 -23 -18 4 0 0 -9 -9 -20 -18 -20 -60
-126 -68 -169 -5 -26 -97 -215 -117 -238 -6 -7 -8 -13 -4 -13 4 0 0 -12 -7
-27 -16 -34 -16 -35 8 -100 19 -52 35 -61 35 -19 0 26 36 60 67 63 19 2 21 -2
18 -35 -4 -44 -13 -99 -22 -127 -13 -42 -17 -151 -8 -210 9 -62 35 -187 41
-197 3 -5 7 -19 9 -31 2 -12 11 -49 20 -82 10 -33 19 -68 21 -77 2 -10 6 -27
9 -38 3 -11 7 -29 10 -41 2 -11 7 -30 11 -41 3 -11 7 -30 9 -41 2 -12 6 -33 9
-47 28 -121 37 -200 37 -300 -1 -116 0 -112 -30 -90 -14 10 -38 29 -53 42 -32
28 -36 31 -163 133 -55 44 -108 89 -117 99 -10 10 -18 15 -18 11 0 -4 -11 5
-25 21 -14 16 -25 25 -25 20 0 -6 -7 -1 -15 10 -8 10 -15 17 -15 14 -6 -25
-10 -54 -15 -105 -3 -34 -7 -72 -10 -86 -2 -13 -7 -42 -10 -64 -4 -22 -8 -49
-9 -60 -1 -11 -4 -24 -8 -30 -3 -5 -5 -25 -4 -43 0 -17 -3 -32 -7 -32 -5 0 -5
-4 -2 -10 3 -5 2 -10 -4 -10 -5 0 -8 -9 -6 -20 2 -11 0 -20 -4 -20 -4 0 -8 -6
-9 -12 0 -12 -8 -44 -16 -73 -2 -5 -8 -23 -14 -38 -7 -16 -12 -30 -12 -33 0
-2 -18 -42 -40 -89 -43 -89 -103 -175 -164 -237 -20 -21 -32 -38 -26 -38 6 0
8 -5 4 -12 -4 -7 -3 -8 5 -4 6 4 8 12 5 18 -5 7 -2 8 7 2 21 -13 42 -14 55 -3
7 6 15 6 18 1 6 -10 62 -9 72 1 4 4 14 1 22 -6 12 -10 16 -9 20 1 3 9 7 10 17
2 10 -8 15 -8 20 0 5 8 11 7 23 -2 12 -11 16 -11 20 0 3 9 7 10 17 2 10 -8 15
-8 20 0 5 8 11 7 23 -2 12 -11 16 -11 20 0 3 10 7 10 20 0 12 -11 16 -11 20 0
3 10 7 10 20 0 12 -10 16 -10 19 0 3 6 10 9 16 5 21 -13 49 -14 41 -1 -4 7 -3
8 5 4 21 -14 63 -18 56 -5 -5 8 -1 8 14 -1 16 -8 26 -8 35 -1 7 6 15 8 18 5 3
-2 18 -7 33 -10 19 -3 24 -1 19 7 -4 8 -3 9 5 5 22 -14 63 -17 55 -5 -4 8 -3
9 4 5 22 -13 52 -15 52 -3 0 9 2 9 8 0 9 -14 44 -12 54 2 5 7 8 6 8 0 0 -6 11
-11 25 -11 14 0 25 5 25 11 0 7 3 7 8 0 4 -6 16 -11 27 -11 11 0 23 5 27 11 5
7 8 6 8 -1 0 -12 38 -13 56 -1 6 3 14 3 18 -1 12 -11 66 -10 66 2 0 6 4 5 9
-2 4 -8 12 -14 16 -14 4 0 12 6 16 14 5 7 9 8 9 2 0 -6 7 -11 15 -11 8 0 15 5
15 11 0 6 4 5 9 -2 11 -17 21 -17 32 0 5 7 9 8 9 2 0 -14 30 -14 30 0 0 7 3 7
8 1 11 -15 32 -17 32 -3 0 10 2 10 9 0 4 -8 12 -14 16 -14 4 0 12 6 16 14 7
10 9 10 9 0 0 -8 5 -10 13 -5 18 11 36 12 43 2 3 -5 13 -5 24 1 13 7 21 7 25
0 5 -8 11 -8 20 0 10 8 15 8 20 0 5 -8 11 -7 23 2 12 10 14 10 8 1 -4 -7 -2
-13 3 -13 17 0 13 18 -7 38 -30 27 -72 62 -77 62 -2 0 -22 17 -45 37 l-40 37
7 96 c7 110 7 233 -1 273 -3 15 -8 38 -11 52 -3 14 -8 37 -11 53 -3 15 -7 32
-8 37 -1 6 -5 19 -9 30 -5 18 -9 37 -23 125 -2 14 -7 57 -10 95 -3 39 -7 90
-9 115 -11 130 -7 180 18 213 30 40 60 103 55 117 -2 6 -18 0 -38 -14 l-35
-23 -32 31 c-47 45 -61 56 -71 56 -4 0 -18 9 -30 20 -12 12 -22 19 -22 16 0
-3 -23 5 -51 18 -53 25 -132 89 -122 100 4 3 1 6 -5 6 -10 0 -71 97 -70 114 0
5 -4 12 -9 15 -9 6 -41 79 -49 111 -2 8 -10 40 -18 70 -8 30 -17 73 -21 95 -3
23 -7 50 -9 60 -2 11 -7 40 -11 65 -4 25 -13 61 -20 80 -6 20 -9 49 -5 68 8
33 -6 55 -20 32 -16 -26 -22 12 -9 54 27 85 91 165 117 144 8 -7 12 -7 12 2 0
15 30 -24 47 -60 13 -26 26 -84 27 -112 1 -20 12 -33 14 -15 13 106 11 122
-20 185 -17 34 -33 60 -36 57 -3 -3 -16 2 -28 10 -29 19 -61 16 -99 -7z m135
-1400 c0 -4 6 -8 14 -8 7 0 19 -7 26 -16 17 -19 92 -56 84 -41 -3 7 1 4 9 -5
8 -10 17 -15 20 -11 15 15 137 -151 137 -186 0 -6 5 -11 10 -11 6 0 9 -3 8 -7
-1 -5 12 -37 29 -73 26 -57 42 -93 48 -110 1 -3 7 -18 13 -33 7 -16 12 -34 12
-41 0 -7 3 -16 7 -20 4 -3 8 -16 10 -28 2 -12 10 -34 17 -49 13 -27 15 -216 3
-264 -3 -11 -6 -26 -6 -32 -2 -22 -15 -15 -64 32 -26 24 -47 42 -47 39 0 -2
-15 9 -32 25 -18 16 -35 29 -38 29 -3 -1 -25 18 -50 40 -24 23 -48 42 -52 42
-4 0 -12 9 -18 21 -12 22 -5 39 40 89 12 14 25 30 28 36 4 5 25 23 47 39 22
17 43 34 46 39 13 17 0 174 -16 205 -8 17 -12 31 -8 31 5 0 3 4 -3 8 -5 4 -25
31 -43 61 -44 73 -59 88 -67 66 -4 -9 -2 -33 4 -53 19 -63 26 -87 27 -92 0 -3
6 -15 13 -26 6 -12 8 -24 5 -28 -3 -3 -1 -6 5 -6 7 0 12 -6 12 -12 0 -7 7 -26
15 -41 23 -45 7 -69 -132 -199 -27 -27 -53 -48 -56 -48 -10 0 -46 30 -83 67
-28 28 -31 37 -24 62 7 25 7 168 0 196 -1 6 -1 12 0 15 5 13 4 70 -1 70 -8 0
-2 57 7 72 5 7 2 8 -6 3 -8 -5 -11 -4 -7 2 4 6 9 36 11 68 3 32 8 65 11 75 5
17 35 24 35 8z m-439 -358 c47 -40 131 -116 164 -147 18 -18 39 -33 46 -33 7
0 9 -3 6 -7 -4 -3 7 -14 23 -24 17 -11 30 -23 30 -29 0 -5 4 -10 9 -10 6 0 33
-21 61 -47 59 -56 127 -116 234 -207 27 -22 73 -64 102 -93 30 -28 54 -48 54
-45 1 4 9 -3 20 -16 10 -13 17 -29 14 -37 -6 -15 -44 -27 -44 -13 0 5 -6 6
-12 2 -17 -11 -48 -12 -48 -3 0 5 -6 6 -12 4 -29 -11 -78 -12 -78 -2 0 7 -4 7
-12 -1 -8 -8 -15 -9 -25 -1 -9 9 -13 8 -13 0 0 -8 -6 -9 -17 -3 -21 10 -33 10
-50 -1 -6 -4 -14 -3 -18 3 -4 6 -12 7 -18 3 -16 -10 -48 -10 -71 0 -10 5 -16
5 -13 0 3 -5 -3 -9 -13 -9 -10 0 -16 4 -13 9 3 5 -4 4 -16 -2 -11 -7 -21 -8
-21 -4 0 10 -47 10 -56 0 -4 -3 -15 -2 -25 4 -11 5 -19 6 -19 1 0 -11 -53 -9
-62 3 -5 7 -8 6 -8 0 0 -6 -9 -11 -20 -11 -11 0 -20 4 -20 9 0 5 -7 4 -15 -3
-9 -8 -15 -8 -15 -2 0 7 -10 8 -29 2 -15 -4 -34 -4 -42 0 -7 5 -17 6 -21 4
-17 -11 -48 -12 -53 -3 -4 5 -14 5 -26 -1 -14 -8 -19 -7 -19 2 0 9 -3 9 -12 0
-7 -7 -17 -8 -30 -1 -10 5 -18 6 -18 1 0 -4 -9 -8 -20 -8 -11 0 -20 4 -20 9 0
4 -4 5 -10 2 -18 -11 -10 34 8 47 57 41 151 220 167 317 3 19 8 38 11 42 3 5
7 21 9 36 2 16 6 39 9 52 3 13 8 56 12 95 4 39 8 78 10 86 1 8 3 23 3 33 1 22
12 22 42 -3z"/>
<path d="M3829 3868 c-1 -2 -2 -19 -4 -38 -6 -66 -19 -147 -31 -200 -3 -14 -8
-34 -10 -45 -10 -51 -13 -63 -27 -100 -8 -22 -20 -56 -27 -75 -7 -19 -32 -65
-56 -102 -33 -51 -39 -68 -28 -72 8 -3 14 -1 14 4 0 6 9 6 23 1 13 -5 30 -5
39 0 11 6 19 5 23 -1 3 -5 11 -10 16 -10 6 0 8 4 4 9 -3 6 6 6 25 1 16 -5 30
-6 30 -2 0 8 58 8 66 0 3 -3 21 -2 40 2 18 4 34 4 34 0 0 -5 13 -5 29 0 15 4
33 5 39 1 10 -6 58 -6 72 -1 14 6 37 5 58 -2 16 -6 21 -4 16 3 -5 8 -1 8 14 0
12 -6 23 -7 26 -3 5 9 64 7 73 -2 3 -3 14 -1 24 4 12 7 20 7 24 0 4 -7 13 -7
26 0 14 8 19 7 19 -1 0 -8 4 -8 13 -1 8 7 18 7 27 2 20 -13 33 -12 25 0 -4 7
3 7 19 0 14 -5 26 -6 26 -1 0 4 15 5 32 3 l33 -5 -41 39 c-89 84 -146 134
-154 134 -5 0 -12 9 -15 20 -4 11 -11 18 -16 15 -5 -4 -9 -1 -9 4 0 6 -5 11
-10 11 -6 0 -27 18 -49 40 -21 22 -41 37 -45 33 -3 -3 -6 1 -6 10 0 10 -4 17
-10 17 -5 0 -30 20 -55 45 -25 25 -45 43 -45 40 0 -3 -17 11 -37 30 -20 19
-41 35 -46 35 -4 0 -5 5 -2 10 3 6 -1 10 -9 10 -9 0 -21 9 -28 20 -7 11 -19
20 -26 20 -7 0 -10 5 -7 10 3 6 1 10 -5 10 -6 0 -30 18 -52 40 -37 35 -55 47
-59 38z"/>
<path d="M1716 5565 c-9 -14 -14 -30 -11 -35 3 -5 1 -11 -5 -15 -11 -7 -4 -25
10 -25 5 0 7 7 4 15 -4 8 -1 15 7 15 7 0 9 3 6 7 -4 3 -3 11 2 17 13 18 21 46
12 46 -5 0 -16 -11 -25 -25z"/>
<path d="M4244 5582 c-13 -8 21 -92 37 -92 6 0 7 5 3 12 -4 7 -9 22 -10 35 -4
32 -18 53 -30 45z"/>
<path d="M2940 5438 c0 -4 -3 -7 -7 -6 -19 4 -83 -15 -83 -25 0 -6 -3 -7 -6
-4 -4 4 -20 -3 -35 -14 -16 -11 -29 -17 -29 -13 0 8 -136 -131 -163 -167 -10
-13 -28 -42 -39 -64 -11 -22 -28 -48 -37 -59 -9 -10 -15 -20 -14 -22 1 -2 -7
-25 -18 -51 -26 -59 -71 -191 -74 -218 -2 -11 -4 -21 -5 -22 -2 -2 -3 -6 -5
-10 -15 -58 -22 -92 -31 -158 -2 -22 -7 -49 -9 -61 -27 -127 -21 -461 11 -634
3 -14 7 -38 10 -55 3 -16 7 -37 10 -45 3 -8 8 -26 10 -40 5 -29 44 -150 53
-165 3 -5 7 -18 8 -27 8 -51 144 -288 165 -288 6 0 9 -3 6 -6 -8 -7 76 -89
127 -123 46 -31 92 -51 123 -54 12 -1 22 -4 22 -7 0 -8 52 -6 66 3 6 3 14 3
18 0 10 -10 46 -11 40 -1 -3 4 6 9 20 9 25 1 36 3 54 9 4 1 10 2 15 1 4 0 7 3
7 7 0 5 11 14 25 20 35 16 100 74 155 138 28 33 80 110 81 121 1 5 10 21 21
36 11 15 21 34 22 41 1 8 8 21 15 30 7 9 10 16 6 16 -4 0 -3 6 2 13 9 10 43
101 49 130 1 4 2 8 4 10 1 1 3 9 5 17 17 63 27 109 31 130 3 14 7 33 10 43 8
26 19 112 30 222 12 133 1 411 -21 520 -11 56 -26 124 -34 160 -6 22 -10 40
-10 40 0 0 -3 11 -31 95 -26 78 -119 270 -131 270 -5 0 -9 6 -9 14 0 8 -33 47
-72 88 -79 79 -113 108 -128 108 -6 0 -10 4 -10 8 0 4 -10 8 -22 9 -11 1 -25
8 -29 15 -5 7 -9 10 -9 6 0 -3 -22 0 -50 7 -30 8 -50 9 -50 4 0 -6 -6 -7 -12
-3 -18 11 -48 12 -48 2z m120 -80 c0 -5 5 -6 10 -3 6 3 16 3 23 -2 6 -4 17 -8
23 -9 22 -3 134 -80 128 -87 -4 -4 1 -7 11 -7 10 0 16 -2 13 -5 -3 -3 6 -18
21 -33 46 -49 81 -96 87 -119 3 -13 10 -23 14 -23 6 0 35 -58 45 -90 2 -6 13
-32 43 -102 11 -25 18 -48 15 -51 -2 -3 1 -15 7 -27 7 -13 13 -32 15 -44 6
-37 16 -79 21 -87 2 -5 7 -32 10 -61 3 -29 8 -55 9 -59 16 -24 23 -354 11
-464 -3 -27 -7 -68 -10 -90 -9 -80 -28 -170 -58 -270 -11 -38 -20 -71 -19 -73
1 -1 -4 -15 -12 -30 -7 -15 -33 -67 -56 -115 -44 -90 -109 -178 -170 -232 -19
-16 -40 -35 -47 -42 -6 -7 -14 -9 -18 -6 -3 4 -6 1 -6 -6 0 -7 -4 -9 -10 -6
-5 3 -10 2 -10 -3 0 -8 -11 -13 -62 -27 -5 -2 -11 -4 -15 -5 -5 -1 -11 -2 -15
-1 -5 0 -8 -3 -8 -7 0 -5 -27 -8 -60 -8 -33 1 -60 5 -60 9 0 4 -6 7 -12 6 -23
-4 -104 32 -138 60 -51 42 -130 126 -130 137 0 7 -4 14 -10 16 -17 6 -98 158
-121 229 -12 38 -27 69 -31 69 -5 0 -6 5 -3 10 3 6 3 16 -2 23 -4 6 -8 17 -10
22 -8 39 -13 57 -21 88 -6 20 -8 38 -5 41 3 2 1 11 -3 18 -5 7 -9 22 -10 33
-1 11 -4 33 -8 50 -25 129 -26 422 -2 573 3 15 8 45 11 67 4 22 9 49 10 60 2
11 4 20 5 20 2 0 7 19 15 57 3 15 10 40 16 55 6 16 10 28 9 28 -2 0 6 24 16
50 4 11 8 22 9 25 1 3 10 25 21 50 10 25 18 48 16 53 -1 4 2 7 7 7 5 0 12 11
15 25 4 14 11 25 16 25 6 0 10 6 10 13 0 21 59 97 120 157 71 69 86 80 94 73
3 -4 6 -1 6 5 0 7 6 12 14 12 8 0 22 7 30 16 9 8 16 12 16 8 0 -3 7 -1 15 6
12 10 15 10 15 -1 0 -10 3 -10 8 -3 4 7 30 11 60 10 28 0 52 2 52 6 0 4 7 5
15 2 8 -4 15 -10 15 -16z"/>
<path d="M2941 5305 c-1 -6 -10 -11 -22 -12 -25 -2 -111 -43 -121 -57 -4 -6
-8 -7 -8 -2 0 5 -29 -22 -65 -59 -36 -38 -65 -72 -65 -76 0 -4 -6 -14 -12 -21
-7 -7 -26 -40 -43 -73 -16 -33 -32 -62 -35 -65 -3 -3 -6 -9 -7 -15 -1 -5 -13
-40 -27 -77 -13 -38 -22 -68 -19 -68 3 0 1 -6 -5 -12 -5 -7 -13 -26 -16 -43
-3 -16 -9 -41 -12 -55 -14 -64 -16 -100 -6 -100 6 0 30 31 55 68 48 72 144
175 154 164 2 -1 16 4 31 12 20 10 48 13 98 10 148 -11 192 -4 265 42 57 36
128 141 144 214 2 8 4 15 5 15 2 0 7 19 15 58 3 15 1 27 -5 27 -5 0 -9 3 -8 8
4 11 -35 52 -44 46 -4 -3 -8 0 -8 5 0 6 -7 11 -15 11 -8 0 -15 4 -15 9 0 5
-10 12 -22 16 -35 11 -38 12 -40 15 -2 1 -15 3 -30 4 -15 1 -30 5 -34 8 -3 4
-17 3 -30 -2 -17 -7 -24 -6 -24 3 0 8 -3 8 -9 -2 -7 -11 -9 -11 -14 0 -3 8 -6
9 -6 4z m129 -84 c0 -4 10 -7 22 -8 11 -1 24 -6 27 -10 3 -4 13 -9 21 -11 8
-2 25 -13 37 -24 20 -19 21 -26 9 -73 -7 -31 -43 -90 -75 -124 -36 -39 -116
-85 -132 -76 -4 3 -10 1 -13 -3 -3 -5 -25 -7 -48 -6 -24 2 -62 5 -85 6 -24 2
-43 6 -43 10 0 4 -10 4 -22 -1 -13 -5 -42 -15 -65 -22 -24 -7 -43 -16 -43 -21
0 -4 -6 -8 -12 -8 -7 0 -29 -18 -48 -40 -19 -22 -38 -40 -42 -40 -16 0 88 227
118 257 8 8 14 17 14 21 1 21 160 166 160 146 0 -4 5 -3 12 4 7 7 20 12 30 12
10 0 18 4 18 8 0 5 36 9 80 9 44 1 80 -2 80 -6z"/>
<path d="M3282 5131 c-7 -4 -14 -23 -16 -42 -2 -19 -7 -43 -11 -54 -4 -11 -11
-33 -17 -50 -30 -88 -99 -195 -125 -195 -7 0 -13 -4 -13 -9 0 -10 -38 -24 -57
-22 -7 1 -13 -3 -13 -9 0 -6 -4 -9 -9 -5 -5 3 -12 2 -15 -3 -3 -5 -64 -8 -135
-8 -72 1 -131 -3 -131 -7 0 -5 -4 -6 -9 -3 -10 7 -75 -26 -111 -56 -25 -21
-94 -120 -100 -143 -1 -5 -6 -21 -11 -35 -18 -47 -20 -55 -19 -55 1 0 -4 -13
-10 -29 -15 -39 -21 -88 -24 -176 -3 -89 1 -105 20 -89 8 6 14 19 14 28 0 9 9
27 20 41 11 14 20 30 20 36 0 6 9 23 21 38 11 14 18 26 15 26 -3 0 16 23 41
50 27 30 52 49 60 45 8 -2 11 -1 8 4 -5 9 32 27 48 23 4 -1 7 3 7 9 0 8 4 8
13 2 6 -5 28 -10 47 -12 39 -2 90 -21 90 -34 0 -5 5 -7 12 -5 6 2 27 -11 47
-29 20 -18 44 -36 54 -39 9 -3 17 -11 17 -19 0 -7 10 -19 23 -28 12 -8 48 -39
79 -68 79 -74 80 -75 113 -84 46 -14 57 -13 96 6 74 36 132 142 169 308 18 82
21 198 6 251 -12 41 -13 44 -18 60 -3 8 -16 44 -28 80 -28 83 -101 235 -132
277 -15 20 -29 29 -36 24z m52 -143 c13 -24 30 -60 37 -80 7 -21 17 -38 21
-38 4 0 7 -3 6 -7 -2 -11 14 -66 22 -78 15 -19 52 -160 52 -195 -1 -33 -6 -73
-17 -130 -3 -14 -7 -34 -9 -45 -17 -87 -98 -215 -137 -215 -5 0 -8 -4 -5 -9 4
-5 -12 -8 -35 -6 -44 4 -80 28 -179 121 -115 109 -129 121 -135 116 -3 -3 -5
0 -5 7 0 7 -4 9 -10 6 -5 -3 -10 -2 -10 2 0 10 -62 49 -72 45 -5 -1 -8 3 -8 9
0 5 -4 8 -9 4 -5 -3 -12 -1 -16 5 -4 6 -10 8 -14 6 -4 -3 -24 -1 -44 4 -21 4
-37 4 -37 -1 0 -4 -7 -6 -15 -3 -8 4 -15 1 -15 -6 0 -6 -4 -8 -10 -5 -5 3 -10
1 -10 -5 0 -6 -4 -9 -9 -5 -12 7 -121 -95 -121 -112 0 -7 -4 -13 -10 -13 -5 0
-10 -7 -10 -15 0 -8 -4 -15 -9 -15 -5 0 -11 -10 -14 -22 -4 -12 -9 -20 -12
-16 -15 15 68 226 109 275 27 33 62 63 73 63 7 0 13 4 13 9 0 5 15 12 33 16
47 12 61 12 69 0 5 -7 8 -6 8 1 0 7 32 10 95 9 52 -1 95 1 95 5 0 4 10 6 23 5
12 -1 27 2 34 7 7 5 17 7 23 3 5 -3 10 -2 10 4 0 5 9 12 19 16 64 20 156 158
183 273 7 28 16 52 20 52 4 0 18 -19 32 -42z"/>
<path d="M3520 4337 c-68 -229 -124 -296 -244 -292 -32 2 -63 8 -69 14 -6 6
-19 11 -28 11 -10 0 -19 4 -21 9 -1 5 -9 11 -17 13 -17 4 -47 26 -70 51 -8 9
-19 17 -23 17 -4 0 -44 36 -90 81 -75 73 -120 105 -140 101 -5 -1 -8 2 -8 6 0
4 -20 9 -45 9 -25 1 -43 -3 -40 -8 3 -5 0 -6 -8 -3 -8 3 -22 -2 -30 -11 -9 -9
-18 -14 -20 -13 -7 5 -97 -114 -97 -127 0 -4 -11 -31 -25 -61 -14 -31 -27 -63
-28 -72 -1 -9 -6 -22 -9 -28 -19 -30 -30 -145 -16 -162 8 -9 24 1 67 46 48 50
76 71 101 76 3 1 11 5 19 10 8 5 16 4 22 -5 6 -9 9 -10 9 -2 0 6 9 11 20 10
11 -1 20 -5 20 -10 0 -4 4 -6 9 -2 5 3 16 -2 24 -10 9 -8 18 -15 22 -15 11 0
41 -34 74 -82 18 -27 29 -48 25 -48 -4 0 0 -6 9 -12 9 -7 17 -19 19 -27 2 -8
8 -22 15 -30 7 -9 32 -44 57 -78 25 -35 50 -63 55 -63 5 0 13 -9 16 -20 3 -11
12 -20 18 -20 7 0 18 -9 25 -20 7 -12 17 -18 22 -15 6 3 10 -2 10 -11 0 -10 3
-15 6 -12 3 4 22 -5 41 -18 19 -13 39 -21 44 -18 5 3 9 0 9 -7 0 -7 3 -10 6
-7 3 4 18 2 34 -2 20 -6 30 -5 34 3 3 9 5 8 5 0 1 -20 40 17 61 58 11 20 16
39 13 43 -4 3 0 6 7 6 7 0 11 3 7 6 -3 4 0 18 7 33 7 14 21 55 30 91 10 36 18
70 20 75 2 6 7 28 11 50 12 55 12 55 15 58 2 3 7 26 14 74 3 21 8 48 10 60 15
74 27 331 16 338 -4 2 -13 -15 -20 -38z m-703 -60 c7 0 15 -7 17 -14 3 -8 10
-11 16 -8 5 3 10 1 10 -5 0 -6 4 -9 9 -5 5 3 13 -4 16 -16 4 -11 9 -18 12 -16
2 3 31 -20 63 -51 70 -69 98 -92 108 -92 4 0 14 -9 22 -19 7 -11 17 -18 22
-15 4 3 8 0 8 -7 0 -7 3 -10 6 -6 3 3 13 -1 22 -9 10 -8 22 -15 27 -15 6 -1
19 -6 30 -12 11 -6 23 -11 26 -10 3 1 22 -2 42 -7 25 -5 37 -4 37 3 0 6 3 7 7
4 3 -4 12 -2 20 4 10 9 13 8 13 -2 0 -11 2 -11 10 1 5 8 10 11 10 7 0 -20 86
70 101 105 6 16 15 28 20 28 7 0 6 -14 -7 -90 -4 -19 -8 -44 -10 -55 -8 -53
-52 -220 -77 -295 -12 -36 -27 -71 -34 -78 -17 -17 -17 -25 0 -16 6 4 4 -2 -6
-12 -13 -14 -32 -19 -67 -19 -26 0 -46 3 -44 7 3 5 -3 8 -14 8 -10 0 -31 11
-46 25 -14 13 -26 22 -26 19 0 -3 -10 4 -22 16 -12 11 -26 20 -32 20 -5 0 -7
2 -4 5 3 3 -12 23 -33 45 -40 42 -143 194 -139 206 1 4 -2 10 -7 13 -5 3 -20
22 -33 41 -27 38 -90 102 -90 92 0 -4 -4 -1 -8 5 -5 7 -20 14 -35 15 -15 1
-27 6 -27 11 0 5 -6 4 -14 -2 -10 -9 -16 -9 -21 -1 -5 8 -11 8 -20 0 -8 -7
-20 -8 -27 -4 -7 4 -10 4 -6 -1 4 -4 -13 -21 -37 -37 -25 -17 -45 -34 -45 -39
0 -5 -5 -9 -11 -9 -6 0 -8 9 -4 21 4 12 8 27 9 34 1 7 18 46 38 86 54 110 122
164 188 151 14 -2 30 -5 37 -5z"/>
<path d="M2690 3909 c-19 -4 -36 -12 -38 -18 -2 -6 -9 -11 -15 -12 -15 0 -82
-87 -91 -117 -4 -12 -11 -22 -16 -22 -12 0 4 -61 37 -140 32 -77 48 -110 56
-110 4 0 7 -6 7 -13 0 -8 9 -22 20 -32 11 -10 20 -22 20 -27 0 -17 145 -150
154 -141 3 4 6 1 6 -6 0 -8 7 -11 15 -7 8 3 15 2 15 -3 0 -10 34 -23 65 -25
11 0 24 -7 28 -14 7 -10 12 -10 23 -1 11 9 18 8 31 -2 14 -12 16 -12 8 0 -6
11 -3 13 13 9 12 -4 22 -2 22 3 0 5 3 8 8 7 14 -3 92 25 92 34 0 4 7 8 15 8
16 0 122 97 114 104 -3 3 -23 6 -44 7 -22 1 -44 5 -50 8 -5 3 -15 6 -22 7 -22
4 -92 77 -143 149 -27 40 -50 76 -50 80 0 4 -13 27 -30 52 -16 24 -30 48 -30
54 0 5 -5 9 -12 9 -6 0 -9 3 -5 6 3 4 1 12 -6 19 -7 6 -21 24 -32 39 -24 33
-75 88 -75 81 0 -3 -12 1 -27 8 -19 9 -40 11 -63 6z m80 -88 c5 -9 10 -13 10
-8 0 8 29 -20 45 -45 70 -104 125 -189 125 -194 0 -9 62 -98 74 -106 6 -5 7
-8 1 -8 -5 0 19 -27 53 -61 35 -33 62 -62 60 -63 -2 -1 -12 -8 -22 -16 -18
-13 -19 -13 -11 0 6 12 5 13 -6 3 -7 -7 -21 -13 -31 -13 -10 0 -18 -5 -18 -10
0 -7 -6 -7 -19 0 -11 6 -22 6 -25 1 -19 -30 -176 31 -241 94 -56 55 -109 123
-126 163 -8 17 -17 32 -21 32 -5 0 -8 6 -8 13 0 7 -9 33 -21 57 -21 42 -21 45
-3 74 9 17 33 47 53 67 30 30 43 36 79 36 29 0 46 -5 52 -16z"/>
<path d="M1925 4515 c-10 -42 -22 -78 -26 -81 -4 -2 -5 -13 -2 -23 5 -18 11
-23 38 -32 6 -1 16 -9 23 -16 8 -7 18 -11 23 -8 5 4 9 2 9 -4 0 -5 9 -13 20
-16 14 -5 19 -13 16 -30 -6 -33 -67 -155 -77 -155 -5 0 -9 -7 -9 -15 0 -9 -6
-18 -14 -21 -17 -7 -26 -37 -16 -54 9 -14 50 16 50 37 0 7 4 13 8 13 5 0 16
15 26 33 9 17 22 41 29 52 20 33 41 70 43 75 0 3 9 23 19 45 29 62 28 72 -15
115 -22 22 -40 45 -40 50 0 6 -4 10 -10 10 -5 0 -10 5 -10 10 0 6 -4 16 -10
23 -5 7 -20 25 -33 40 l-23 29 -19 -77z"/>
<path d="M4006 4560 c-9 -17 -44 -64 -76 -105 -36 -44 -58 -81 -56 -92 4 -20
57 -135 67 -143 3 -3 22 -32 41 -65 52 -86 77 -113 88 -96 9 16 2 42 -14 53
-6 4 -11 12 -11 17 0 5 -10 18 -23 29 -13 11 -24 24 -24 29 -3 25 -12 43 -21
43 -6 0 -7 3 -4 7 4 3 2 12 -4 20 -6 7 -8 13 -5 13 4 0 2 10 -5 21 -9 18 -7
25 15 46 14 13 31 21 36 18 6 -3 10 -2 10 3 0 5 14 15 30 22 35 15 36 24 11
112 -28 98 -33 104 -55 68z"/>
<path d="M134 2961 c-2 -2 -4 -65 -4 -139 0 -110 2 -133 14 -129 7 3 19 0 26
-6 9 -8 11 -8 7 -1 -4 7 3 12 18 12 14 0 22 -5 18 -11 -4 -6 -1 -7 7 -2 17 10
133 10 150 0 8 -5 11 -4 7 2 -8 12 54 10 74 -3 8 -4 9 -3 5 4 -10 16 7 15 23
0 8 -7 11 -8 8 -3 -6 12 144 12 164 0 7 -5 10 -4 6 2 -4 6 4 11 18 11 14 0 22
-5 18 -11 -4 -6 -1 -7 7 -2 17 10 133 10 150 0 8 -5 11 -4 7 2 -8 12 54 10 74
-3 8 -4 9 -3 5 4 -10 16 7 15 23 0 8 -7 11 -8 8 -3 -3 6 34 10 103 10 59 0
106 -4 103 -8 -3 -5 4 -4 15 2 14 8 23 8 27 1 5 -8 11 -8 19 -1 9 7 16 7 24
-1 7 -7 12 -8 12 -2 0 5 49 9 114 9 63 0 112 -4 109 -8 -3 -5 4 -4 15 2 14 8
23 8 27 1 5 -8 11 -8 19 -1 9 7 16 7 24 -1 8 -8 12 -8 12 -1 0 11 41 10 61 -3
7 -4 9 -3 6 3 -8 12 54 10 74 -3 8 -4 9 -3 5 4 -10 16 7 15 23 0 8 -7 11 -8 8
-3 -6 12 144 12 164 0 7 -5 10 -4 6 2 -4 6 4 11 18 11 14 0 22 -5 18 -11 -4
-6 -1 -7 7 -2 17 10 133 10 150 0 8 -5 11 -4 7 2 -8 12 54 10 74 -3 8 -4 9 -3
5 4 -10 16 7 15 23 0 8 -7 11 -8 8 -3 -3 6 34 10 103 10 59 0 106 -4 103 -8
-3 -5 4 -4 15 2 14 8 23 8 27 1 5 -8 11 -8 19 -1 9 7 16 7 24 -1 8 -8 12 -8
12 -1 0 11 41 10 61 -3 7 -4 9 -3 6 3 -8 12 54 10 74 -3 8 -4 9 -3 5 4 -10 16
7 15 23 0 8 -7 11 -8 8 -3 -6 12 144 12 164 0 7 -5 10 -4 6 2 -4 6 4 11 18 11
14 0 22 -5 18 -11 -4 -6 -1 -7 7 -2 17 10 133 10 150 0 8 -5 11 -4 7 2 -8 12
54 10 74 -3 7 -4 9 -3 6 3 -8 12 54 10 74 -3 7 -4 9 -3 6 3 -8 12 54 10 74 -3
8 -4 9 -3 5 4 -10 16 7 15 23 0 8 -7 11 -8 8 -3 -6 12 144 12 164 0 7 -5 10
-4 6 2 -4 6 4 11 18 11 14 0 22 -5 18 -11 -4 -6 -1 -7 7 -2 17 10 133 10 150
0 8 -5 11 -4 7 2 -8 12 54 10 74 -3 7 -4 9 -3 6 3 -7 11 95 9 114 -3 7 -4 10
-3 6 3 -4 6 4 11 18 11 14 0 22 -5 18 -11 -3 -6 -1 -7 5 -3 16 10 162 14 156
5 -2 -4 8 -5 23 -1 35 9 76 8 93 -3 8 -5 11 -4 7 2 -4 6 4 11 18 11 14 0 22
-5 18 -11 -3 -6 -1 -7 5 -3 15 9 163 15 157 7 -2 -4 5 -7 15 -7 10 0 17 3 15
6 -2 3 46 5 105 5 59 0 106 -4 103 -8 -3 -5 4 -4 15 2 14 8 23 8 27 1 5 -8 11
-8 19 -1 9 7 16 7 24 -1 8 -8 12 -8 12 -1 0 11 41 10 61 -3 7 -4 9 -3 6 3 -8
12 54 10 74 -3 8 -4 9 -3 5 4 -10 16 7 15 23 0 8 -7 11 -8 8 -3 -6 12 144 12
164 0 7 -5 10 -4 6 2 -4 6 4 11 18 11 14 0 22 -5 18 -11 -4 -6 -1 -7 7 -2 17
10 133 10 150 0 8 -5 11 -4 7 2 -8 12 54 10 74 -3 8 -4 9 -3 5 4 -10 16 7 15
23 0 8 -7 11 -8 8 -3 -6 12 144 12 164 0 7 -5 10 -4 6 2 -4 6 4 11 18 11 14 0
23 -3 21 -7 -3 -4 4 -7 14 -7 10 0 17 3 15 6 -2 3 35 5 81 4 66 -2 86 1 91 12
3 8 10 11 17 7 6 -4 5 1 -3 10 -7 9 -10 17 -6 17 4 0 2 7 -5 15 -9 11 -9 15
-1 15 8 0 9 5 2 19 -6 10 -7 22 -3 26 10 10 9 29 -3 37 -6 5 -5 8 3 8 7 0 10
5 7 10 -4 6 -1 18 6 26 10 12 9 13 -7 7 -19 -7 -19 -6 0 21 10 16 14 26 8 22
-5 -3 -15 1 -22 10 -11 12 -15 12 -21 2 -5 -7 -9 -8 -9 -3 0 10 -96 12 -106 2
-3 -3 -16 -2 -29 3 -14 5 -26 5 -34 -3 -8 -8 -11 -8 -11 0 0 11 -7 11 -45 3
-5 -1 -12 -1 -15 0 -17 6 -50 5 -50 -2 0 -5 -6 -6 -12 -2 -17 11 -148 11 -148
1 0 -5 -6 -5 -12 0 -17 10 -68 11 -68 1 0 -4 -11 -3 -25 2 -15 6 -26 6 -30 -1
-4 -5 -11 -7 -16 -4 -19 12 -49 13 -49 2 0 -8 -3 -8 -11 0 -8 8 -20 8 -34 3
-13 -5 -25 -7 -28 -4 -10 10 -47 12 -47 3 0 -6 -5 -7 -12 -3 -16 10 -148 11
-148 1 0 -5 -6 -5 -12 0 -17 10 -68 11 -68 1 0 -4 -11 -3 -25 2 -15 6 -27 6
-30 0 -3 -6 -15 -6 -29 0 -15 5 -27 5 -35 -3 -8 -8 -11 -8 -11 0 0 11 -7 11
-45 3 -5 -1 -12 -1 -15 0 -17 6 -50 5 -50 -2 0 -5 -6 -6 -12 -2 -17 11 -108
11 -108 1 0 -5 -6 -5 -12 -1 -19 12 -48 12 -48 0 0 -7 -3 -7 -8 -1 -9 13 -42
16 -42 4 0 -6 -8 -6 -18 0 -13 7 -23 6 -30 -1 -9 -9 -12 -9 -12 -1 0 7 -9 10
-22 7 -26 -6 -28 -6 -85 -2 -24 2 -43 0 -43 -5 0 -4 -6 -5 -12 -1 -19 12 -48
12 -48 0 0 -7 -3 -7 -8 -1 -9 13 -42 16 -42 4 0 -6 -8 -6 -18 0 -13 7 -23 6
-30 -1 -9 -9 -12 -9 -12 -1 0 7 -9 10 -22 7 -13 -3 -27 -5 -33 -5 -5 0 -31 1
-57 2 -26 2 -50 0 -54 -3 -3 -4 -16 -3 -29 2 -14 5 -26 5 -34 -3 -8 -8 -11 -8
-11 0 0 11 -7 11 -45 3 -5 -1 -12 -1 -15 0 -17 6 -50 5 -50 -2 0 -5 -6 -6 -12
-2 -17 11 -148 11 -148 1 0 -5 -6 -5 -12 0 -17 10 -68 11 -68 1 0 -4 -11 -3
-25 2 -15 6 -26 6 -30 -1 -4 -5 -11 -7 -16 -4 -19 12 -49 13 -49 2 0 -8 -3 -8
-11 0 -8 8 -20 8 -34 3 -13 -5 -25 -7 -28 -4 -10 10 -47 12 -47 3 0 -6 -5 -7
-12 -3 -16 10 -148 11 -148 1 0 -5 -6 -5 -12 0 -17 10 -68 11 -68 1 0 -4 -11
-3 -25 2 -15 6 -27 6 -30 0 -3 -6 -15 -6 -29 0 -15 5 -27 5 -35 -3 -8 -8 -11
-8 -11 0 0 11 -7 11 -45 3 -5 -1 -12 -1 -15 0 -17 6 -50 5 -50 -2 0 -5 -6 -6
-12 -2 -17 11 -148 11 -148 1 0 -5 -6 -5 -12 0 -17 10 -68 11 -68 1 0 -4 -11
-3 -25 2 -15 6 -26 6 -30 -1 -4 -5 -11 -7 -16 -4 -19 12 -49 13 -49 2 0 -8 -3
-8 -11 0 -8 8 -20 8 -34 3 -13 -5 -25 -7 -28 -4 -10 10 -47 12 -47 3 0 -6 -5
-7 -12 -3 -16 10 -148 11 -148 1 0 -5 -6 -5 -12 0 -18 10 -68 11 -68 0 0 -4
-6 -5 -12 0 -18 10 -68 11 -68 0 0 -4 -6 -5 -12 0 -17 10 -68 11 -68 1 0 -4
-11 -3 -25 2 -15 6 -26 6 -30 -1 -4 -5 -11 -7 -16 -4 -19 12 -49 13 -49 2 0
-8 -3 -8 -11 0 -8 8 -20 8 -34 3 -13 -5 -25 -7 -28 -4 -10 10 -47 12 -47 3 0
-6 -5 -7 -12 -3 -16 10 -148 11 -148 1 0 -5 -6 -5 -12 0 -18 10 -68 11 -68 0
0 -4 -6 -5 -12 0 -18 10 -68 11 -68 0 0 -4 -6 -5 -12 0 -17 10 -68 11 -68 1 0
-4 -11 -3 -25 2 -15 6 -26 6 -30 -1 -4 -5 -11 -7 -16 -4 -19 12 -49 13 -49 2
0 -8 -3 -8 -11 0 -8 8 -20 8 -34 3 -13 -5 -25 -7 -28 -4 -10 10 -47 12 -47 3
0 -6 -5 -7 -12 -3 -16 10 -148 11 -148 1 0 -5 -6 -5 -12 0 -18 10 -68 11 -68
0 0 -4 -6 -5 -12 0 -18 10 -68 11 -68 0 0 -4 -6 -5 -12 0 -17 10 -68 11 -68 1
0 -4 -11 -3 -25 2 -15 6 -26 6 -30 -1 -4 -5 -11 -7 -16 -4 -19 12 -49 13 -49
2 0 -8 -3 -8 -11 0 -8 8 -20 8 -34 3 -13 -5 -25 -7 -28 -4 -10 10 -47 12 -47
3 0 -6 -5 -7 -12 -3 -12 8 -97 12 -104 5z"/>
<path d="M313 2622 l-32 -3 4 -92 c7 -117 7 -117 17 -117 5 0 7 -4 4 -8 -3 -5
6 -20 20 -35 18 -20 32 -26 54 -23 17 2 33 -1 36 -6 3 -5 11 -4 19 2 9 8 15 8
20 0 4 -7 13 -7 28 1 16 9 22 9 25 0 2 -6 8 -11 13 -11 6 0 8 4 5 8 -6 10 50
9 60 -1 4 -4 14 -1 22 6 12 9 16 9 19 0 3 -7 9 -13 14 -13 6 0 8 4 5 8 -6 10
50 9 60 -1 4 -4 14 -1 22 6 12 10 16 9 20 -1 3 -10 7 -10 20 0 13 11 14 11 7
-2 -8 -13 -7 -13 8 -1 13 10 20 11 31 2 10 -9 16 -9 21 -1 5 8 10 8 20 0 10
-8 15 -8 20 0 5 8 11 8 19 1 9 -7 16 -7 23 0 8 8 13 8 17 0 5 -8 13 -8 26 -1
13 7 21 7 25 0 5 -8 12 -7 23 2 12 10 16 10 19 1 3 -7 9 -13 14 -13 6 0 8 3 5
8 -5 9 91 8 101 -1 3 -4 13 -2 20 5 11 9 17 9 24 -3 7 -12 9 -12 9 1 0 12 2
12 9 1 5 -7 11 -9 14 -4 6 10 73 10 84 0 3 -4 13 -1 21 6 12 9 16 9 19 0 3 -7
9 -13 14 -13 6 0 8 3 5 8 -5 9 91 8 101 -1 3 -4 13 -2 20 5 11 9 17 9 24 -3 7
-12 9 -12 9 1 0 12 2 12 9 1 5 -7 11 -9 14 -4 7 11 63 10 73 0 4 -4 13 -2 20
4 8 7 14 7 19 -1 5 -8 10 -8 20 0 10 8 15 8 20 0 5 -8 10 -8 20 0 9 8 15 8 20
0 4 -7 13 -7 28 1 16 9 22 9 25 0 2 -6 8 -11 13 -11 6 0 8 4 5 8 -6 10 50 9
60 -1 4 -4 14 -1 22 6 12 9 16 9 19 0 3 -7 9 -13 14 -13 6 0 8 4 5 8 -6 10 50
9 60 -1 4 -4 14 -1 22 6 12 10 16 9 20 -1 3 -10 7 -10 20 0 13 11 14 11 7 -2
-8 -13 -7 -13 8 -1 13 10 20 11 30 2 10 -7 17 -7 24 0 8 8 13 7 18 -1 5 -8 10
-8 20 0 10 8 15 8 20 0 5 -8 10 -8 20 0 9 8 15 8 20 0 4 -7 12 -7 25 0 13 7
21 7 25 0 5 -8 12 -7 23 2 12 10 16 10 19 1 3 -7 9 -13 14 -13 6 0 8 3 5 8 -5
9 91 8 101 -1 3 -4 13 -2 20 5 11 9 16 9 23 -1 6 -11 9 -11 13 0 4 11 6 11 6
1 1 -8 6 -10 13 -6 17 11 88 12 88 2 0 -4 5 -8 11 -8 5 0 8 4 5 8 -6 10 50 9
60 -1 4 -4 14 -1 22 6 12 9 16 9 19 0 3 -7 9 -13 14 -13 6 0 8 4 5 8 -6 10 50
9 60 -1 4 -4 14 -1 22 6 12 9 16 9 19 0 4 -10 10 -10 25 -2 16 8 19 8 13 -1
-6 -9 -2 -9 16 0 17 10 24 10 27 1 2 -6 8 -11 13 -11 6 0 8 4 5 8 -6 10 50 9
60 -1 4 -4 14 -1 22 6 12 9 16 9 19 0 3 -7 9 -13 14 -13 6 0 8 4 5 8 -6 10 50
9 60 -1 4 -4 14 -1 22 6 12 9 16 9 19 0 4 -10 10 -10 25 -2 16 8 19 8 13 -1
-6 -9 -2 -9 16 0 17 10 24 10 27 1 2 -6 8 -11 13 -11 6 0 8 4 5 8 -6 10 50 9
60 -1 4 -4 14 -1 22 6 12 9 16 9 19 0 3 -7 9 -13 14 -13 6 0 8 4 5 8 -6 10 50
9 60 -1 4 -4 14 -1 22 6 12 9 16 9 19 0 4 -10 10 -10 25 -2 16 8 19 8 13 -1
-6 -9 -2 -9 16 0 17 10 24 10 27 1 2 -6 8 -11 13 -11 6 0 8 4 5 8 -6 10 50 9
60 -1 4 -4 14 -1 22 6 12 9 16 9 19 0 3 -7 9 -13 14 -13 6 0 8 4 5 8 -6 10 50
9 60 -1 4 -4 14 -2 21 5 9 7 17 8 21 2 8 -11 32 -11 49 -1 6 4 15 3 18 -3 5
-8 11 -8 20 0 10 8 15 8 20 0 5 -8 10 -8 20 0 10 8 15 8 20 0 5 -8 10 -8 20 0
9 8 15 8 20 0 4 -7 13 -7 28 1 16 9 22 9 25 0 2 -6 8 -11 13 -11 6 0 8 4 5 8
-6 10 50 9 60 -1 4 -4 14 -1 22 6 12 9 16 9 19 0 3 -7 9 -13 14 -13 6 0 8 4 5
8 -6 10 50 9 60 -1 4 -4 14 -1 22 6 12 10 16 9 20 -1 3 -10 7 -10 20 0 13 11
14 11 7 -2 -8 -13 -7 -13 8 -1 13 10 20 11 31 2 10 -9 16 -9 21 -1 5 8 10 8
20 0 10 -8 15 -8 20 0 5 8 11 8 19 1 9 -7 16 -7 23 0 8 8 13 8 17 0 5 -8 13
-8 26 -1 13 7 21 7 25 0 5 -8 12 -7 23 2 12 10 16 10 19 1 3 -7 9 -13 14 -13
6 0 8 3 5 8 -5 9 91 8 101 -1 3 -4 13 -2 20 5 11 9 17 9 24 -3 7 -12 9 -12 9
1 0 12 2 12 9 1 5 -7 11 -9 14 -4 7 11 63 10 73 0 4 -4 13 -2 20 4 8 7 14 7
19 -1 5 -8 10 -8 20 0 10 8 15 8 20 0 5 -8 10 -8 20 0 9 8 15 8 20 0 4 -7 13
-7 28 1 16 9 22 9 25 0 2 -6 8 -11 13 -11 6 0 8 4 5 8 -6 10 50 9 60 -1 4 -4
14 -1 22 6 12 9 16 9 19 0 3 -7 9 -13 14 -13 6 0 8 4 5 8 -6 10 50 9 60 -1 4
-4 14 -1 22 6 12 10 16 9 20 -1 3 -10 7 -10 20 0 13 11 14 11 7 -2 -8 -13 -7
-13 8 -1 13 10 20 11 31 2 10 -9 16 -9 21 -1 5 8 10 8 20 0 10 -8 15 -8 20 0
5 8 11 8 19 1 9 -7 16 -7 23 0 8 8 13 8 17 0 5 -8 13 -8 26 -1 13 7 21 7 25 0
5 -8 12 -7 22 1 12 10 16 10 24 -2 7 -12 9 -12 9 1 0 12 2 12 9 1 5 -7 11 -9
14 -4 3 5 25 8 48 7 52 -2 73 17 92 83 14 50 17 176 4 189 -10 10 -717 11
-717 1 0 -5 -5 -5 -12 -1 -16 10 -788 11 -788 1 0 -5 -5 -5 -12 -1 -17 11
-308 11 -308 1 0 -5 -5 -5 -12 -1 -16 10 -468 11 -468 1 0 -5 -5 -5 -12 -1
-16 10 -628 11 -628 1 0 -5 -5 -5 -12 -1 -16 10 -948 11 -948 1 0 -5 -5 -5
-12 -1 -16 10 -1268 11 -1268 1 0 -5 -5 -5 -12 -1 -12 8 -110 11 -165 6z"/>
<path d="M533 2282 c-11 -7 -17 -216 -6 -235 2 -4 13 -2 24 3 10 6 19 7 19 3
0 -4 27 -8 60 -8 33 0 60 4 60 10 0 7 3 7 8 0 8 -12 192 -14 192 -2 0 5 5 5
12 1 18 -12 58 -11 58 1 0 6 3 7 8 0 4 -5 21 -10 37 -10 17 0 33 5 37 10 5 7
8 7 8 0 0 -5 26 -10 57 -10 32 0 61 5 65 10 5 7 8 7 8 0 0 -10 56 -11 177 -4
29 1 56 0 59 -4 4 -4 13 -2 21 4 7 6 13 7 13 3 0 -13 63 -11 72 1 5 7 8 7 8 0
0 -10 80 -11 105 -1 7 2 16 2 19 -2 8 -7 214 -4 226 3 5 3 12 1 15 -5 5 -8 11
-7 21 1 8 6 14 7 14 3 0 -13 63 -11 72 1 5 7 8 7 8 0 0 -10 80 -11 105 -1 7 2
16 2 19 -2 8 -7 214 -4 226 3 5 3 12 1 15 -5 5 -8 11 -7 21 1 8 6 14 7 14 3 0
-13 63 -11 72 1 5 7 8 7 8 0 0 -11 1318 -12 1345 -1 8 3 15 2 15 -2 0 -11 64
-8 72 3 5 7 8 7 8 0 0 -10 80 -11 105 -1 7 2 16 2 19 -2 8 -7 214 -4 226 3 5
3 12 1 15 -5 5 -8 11 -7 21 1 8 6 14 7 14 3 0 -13 63 -11 72 1 5 7 8 7 8 0 0
-10 80 -11 105 -1 7 2 16 2 19 -1 10 -11 196 -9 196 2 0 7 3 7 8 0 4 -5 18
-10 32 -10 14 0 28 5 32 10 5 7 8 7 8 0 0 -5 16 -10 35 -10 19 0 35 5 35 10 0
7 3 7 8 0 4 -5 32 -10 62 -10 30 0 58 5 62 10 5 7 8 7 8 0 0 -9 68 -11 155 -5
17 1 32 1 35 0 19 -7 70 -3 70 5 0 7 3 7 8 0 4 -5 21 -10 37 -10 17 0 33 5 37
10 5 7 8 7 8 0 0 -5 18 -10 40 -10 49 -1 50 2 47 135 -2 88 -4 95 -22 95 -11
1 -26 4 -33 8 -6 5 -12 4 -12 -1 0 -13 -33 -10 -42 3 -5 6 -8 5 -8 -4 0 -11
-3 -11 -15 -1 -8 7 -15 9 -15 4 0 -5 -11 -9 -25 -9 -14 0 -25 4 -25 9 0 5 -7
3 -15 -4 -10 -8 -15 -9 -15 -1 0 7 -8 8 -25 1 -17 -7 -25 -6 -25 1 0 8 -5 7
-15 -1 -12 -10 -15 -10 -15 1 0 10 -2 11 -8 2 -5 -7 -13 -9 -21 -3 -8 4 -25 4
-38 -1 -15 -6 -23 -5 -23 2 0 8 -5 7 -15 -1 -12 -10 -15 -10 -15 1 0 9 -3 10
-8 4 -10 -14 -32 -17 -32 -5 0 7 -6 7 -19 0 -14 -7 -21 -6 -24 3 -4 9 -6 8 -6
-2 -1 -11 -4 -11 -16 -1 -9 7 -15 8 -15 2 0 -12 -33 -10 -42 3 -5 6 -8 5 -8
-4 0 -11 -3 -11 -15 -1 -8 7 -15 9 -15 4 0 -5 -11 -9 -25 -9 -14 0 -25 4 -25
9 0 5 -7 3 -15 -4 -10 -8 -15 -9 -15 -1 0 7 -8 8 -25 1 -17 -7 -25 -6 -25 1 0
8 -5 7 -15 -1 -12 -10 -15 -10 -15 1 0 10 -2 11 -8 2 -5 -7 -13 -9 -21 -3 -8
4 -25 4 -38 -1 -15 -6 -23 -5 -23 2 0 8 -5 7 -15 -1 -12 -10 -15 -10 -15 1 0
9 -3 10 -8 4 -9 -13 -42 -15 -42 -3 0 6 -6 6 -14 -1 -11 -9 -15 -9 -19 1 -4
10 -6 10 -6 -1 -1 -11 -4 -11 -16 -1 -9 7 -15 8 -15 2 0 -12 -33 -10 -42 3 -5
6 -8 5 -8 -4 0 -11 -3 -11 -15 -1 -8 7 -15 9 -15 4 0 -5 -11 -9 -25 -9 -14 0
-25 4 -25 9 0 5 -7 3 -15 -4 -10 -8 -15 -9 -15 -1 0 7 -8 8 -25 1 -17 -7 -25
-6 -25 1 0 8 -5 7 -15 -1 -12 -10 -15 -10 -15 1 0 10 -2 11 -8 2 -5 -7 -13 -9
-21 -3 -8 4 -25 4 -38 -1 -15 -6 -23 -5 -23 2 0 8 -5 7 -15 -1 -12 -10 -15
-10 -15 1 0 9 -3 10 -8 4 -10 -14 -32 -17 -32 -5 0 7 -6 7 -19 0 -14 -7 -21
-6 -24 3 -4 9 -6 8 -6 -2 -1 -11 -4 -11 -16 -1 -9 7 -15 8 -15 2 0 -12 -33
-10 -42 3 -5 6 -8 5 -8 -4 0 -11 -3 -11 -15 -1 -8 7 -15 9 -15 4 0 -5 -11 -9
-25 -9 -14 0 -25 4 -25 9 0 5 -7 3 -15 -4 -12 -10 -15 -10 -15 1 0 10 -2 11
-8 2 -5 -7 -13 -9 -21 -3 -8 4 -25 4 -38 -1 -15 -5 -23 -5 -23 2 0 6 -7 6 -20
-1 -15 -8 -20 -8 -20 1 0 8 -4 8 -15 -1 -12 -10 -15 -10 -15 1 0 10 -2 11 -8
2 -5 -7 -13 -9 -21 -3 -8 4 -25 4 -38 -1 -15 -5 -23 -5 -23 2 0 6 -7 6 -20 -1
-15 -8 -20 -8 -20 1 0 8 -4 8 -15 -1 -12 -10 -15 -10 -15 1 0 10 -2 11 -8 2
-5 -7 -13 -9 -21 -3 -8 4 -25 4 -38 -1 -15 -5 -23 -5 -23 2 0 6 -7 6 -20 -1
-15 -8 -20 -8 -20 1 0 8 -4 8 -15 -1 -12 -10 -15 -10 -15 1 0 10 -2 11 -8 2
-5 -7 -13 -9 -21 -3 -8 4 -25 4 -38 -1 -15 -5 -23 -5 -23 2 0 6 -7 6 -20 -1
-15 -8 -20 -8 -20 1 0 8 -4 8 -15 -1 -12 -10 -15 -10 -15 1 0 10 -2 11 -8 2
-5 -7 -13 -9 -21 -3 -8 4 -25 4 -38 -1 -15 -5 -23 -5 -23 2 0 6 -7 6 -20 -1
-15 -8 -20 -8 -20 1 0 8 -4 8 -15 -1 -12 -10 -15 -10 -15 1 0 10 -2 11 -8 2
-5 -7 -13 -9 -21 -3 -8 4 -25 4 -38 -1 -15 -5 -23 -5 -23 2 0 6 -7 6 -20 -1
-15 -8 -20 -8 -20 1 0 8 -4 8 -15 -1 -12 -10 -15 -10 -15 1 0 10 -2 11 -8 2
-5 -7 -13 -9 -21 -3 -8 4 -25 4 -38 -1 -15 -5 -23 -5 -23 2 0 6 -7 6 -20 -1
-15 -8 -20 -8 -20 1 0 8 -4 8 -15 -1 -12 -10 -15 -10 -15 1 0 10 -2 11 -8 2
-5 -7 -13 -9 -21 -3 -8 4 -25 4 -38 -1 -15 -5 -23 -5 -23 2 0 6 -7 6 -20 -1
-15 -8 -20 -8 -20 1 0 8 -4 8 -15 -1 -10 -8 -15 -9 -15 -1 0 7 -8 8 -25 1 -17
-7 -25 -6 -25 1 0 8 -5 7 -15 -1 -12 -10 -15 -10 -15 1 0 10 -2 11 -8 2 -5 -7
-13 -9 -21 -3 -8 4 -25 4 -38 -1 -15 -6 -23 -5 -23 2 0 8 -5 7 -15 -1 -12 -10
-15 -10 -15 1 0 9 -3 10 -8 4 -9 -13 -42 -15 -42 -3 0 6 -6 6 -14 -1 -11 -9
-15 -9 -19 1 -4 10 -6 10 -6 -1 -1 -11 -4 -11 -16 -1 -9 7 -15 8 -15 2 0 -12
-33 -10 -42 3 -5 6 -8 5 -8 -4 0 -11 -3 -11 -15 -1 -8 7 -15 9 -15 4 0 -5 -11
-9 -25 -9 -14 0 -25 4 -25 9 0 5 -7 3 -15 -4 -10 -8 -15 -9 -15 -1 0 7 -8 8
-25 1 -17 -7 -25 -6 -25 1 0 8 -5 7 -15 -1 -12 -10 -15 -10 -15 1 0 10 -2 11
-8 2 -5 -7 -13 -9 -21 -3 -8 4 -25 4 -38 -1 -15 -6 -23 -5 -23 2 0 8 -5 7 -15
-1 -12 -10 -15 -10 -15 1 0 9 -3 10 -8 4 -10 -14 -32 -17 -32 -5 0 7 -6 7 -19
0 -14 -7 -21 -6 -24 3 -4 9 -6 8 -6 -2 -1 -11 -4 -11 -16 -1 -9 7 -15 8 -15 2
0 -12 -33 -10 -42 3 -5 6 -8 5 -8 -4 0 -11 -3 -11 -15 -1 -8 7 -15 9 -15 4 0
-5 -11 -9 -25 -9 -14 0 -25 4 -25 9 0 5 -7 3 -15 -4 -10 -8 -15 -9 -15 -1 0 7
-8 8 -25 1 -17 -7 -25 -6 -25 1 0 8 -5 7 -15 -1 -12 -10 -15 -10 -15 1 0 10
-2 11 -8 2 -5 -7 -13 -9 -21 -3 -8 4 -25 4 -38 -1 -15 -6 -23 -5 -23 2 0 8 -5
7 -15 -1 -12 -10 -15 -10 -15 1 0 9 -3 10 -8 4 -9 -13 -42 -16 -42 -4 0 6 -9
5 -20 -1 -15 -8 -20 -8 -20 1 0 8 -4 8 -15 -1 -10 -8 -15 -9 -15 -1 0 7 -8 8
-25 1 -17 -7 -25 -6 -25 1 0 8 -5 7 -15 -1 -12 -10 -15 -10 -15 1 0 10 -2 11
-8 2 -5 -7 -13 -9 -21 -3 -8 4 -25 4 -38 -1 -15 -6 -23 -5 -23 2 0 8 -5 7 -15
-1 -12 -10 -15 -10 -15 1 0 9 -3 10 -8 4 -9 -13 -42 -15 -42 -3 0 6 -6 6 -14
-1 -11 -9 -15 -9 -19 1 -4 10 -6 10 -6 -1 -1 -11 -4 -11 -16 -1 -9 7 -15 8
-15 2 0 -12 -33 -10 -42 3 -5 6 -8 5 -8 -4 0 -11 -3 -11 -15 -1 -8 7 -15 9
-15 4 0 -5 -11 -9 -25 -9 -14 0 -25 4 -25 9 0 5 -7 3 -15 -4 -10 -8 -15 -9
-15 -1 0 7 -8 8 -25 1 -17 -7 -25 -6 -25 1 0 8 -4 8 -14 0 -11 -9 -15 -9 -19
1 -4 10 -6 10 -6 1 -1 -9 -8 -10 -23 -5 -26 9 -60 8 -76 -2 -6 -3 -12 -2 -14
4 -1 5 -8 6 -15 2z"/>
<path d="M800 1994 c0 -7 -7 -15 -16 -18 -8 -3 -13 -2 -10 3 3 5 -5 9 -19 9
-14 0 -22 -5 -19 -10 4 -7 0 -7 -12 0 -21 10 -113 10 -131 -1 -6 -4 -14 -3
-18 3 -3 5 -11 10 -16 10 -6 0 -7 -6 -3 -12 6 -10 5 -10 -8 -1 -8 7 -18 10
-21 7 -3 -4 -6 -391 -6 -860 l-1 -854 355 0 355 0 0 843 c0 661 -3 846 -12
856 -10 11 -10 13 0 7 6 -4 12 -3 12 3 0 5 -13 9 -30 9 -17 -1 -27 -5 -23 -11
4 -6 1 -7 -8 -2 -18 12 -89 14 -95 3 -3 -5 -11 -5 -17 0 -14 10 -47 10 -64 -1
-6 -4 -14 -3 -18 3 -4 7 -13 6 -27 -1 -11 -6 -18 -7 -14 -1 3 5 -5 10 -19 10
-16 0 -22 -5 -18 -12 5 -8 3 -8 -8 -1 -16 12 -39 13 -56 2 -7 -4 -16 0 -22 10
-6 10 -11 13 -11 7z m-165 -868 c0 -571 -3 -687 -14 -698 -9 -8 -11 -9 -7 -1
3 6 2 14 -3 17 -12 8 -9 1356 3 1375 6 9 11 10 15 2 4 -5 6 -318 6 -695z m102
0 c1 -637 -1 -694 -16 -692 -15 3 -16 61 -16 682 -1 373 1 687 3 696 2 9 10
14 16 12 10 -4 13 -158 13 -698z m106 339 c0 -183 -3 -337 -7 -344 -4 -6 -4
-11 1 -11 9 0 9 -440 0 -464 -4 -9 -3 -16 1 -16 8 0 6 -143 -3 -177 -3 -13
-10 -23 -15 -23 -13 0 -12 -57 -14 705 -1 371 2 668 7 679 24 50 30 -25 30
-349z m95 288 c-4 -13 -4 -23 0 -23 9 0 7 -373 -2 -388 -4 -7 -4 -12 1 -12 10
0 9 -212 -1 -228 -4 -7 -4 -12 1 -12 9 0 8 -202 -1 -225 -3 -8 -2 -15 2 -15 9
0 7 -213 -2 -228 -4 -7 -3 -12 2 -12 11 0 9 -51 -2 -69 -4 -6 -3 -11 2 -11 9
0 6 -90 -4 -99 -2 -3 -9 0 -16 7 -14 14 -17 92 -3 92 6 0 7 3 0 8 -13 9 -14
65 0 74 6 5 6 8 0 8 -7 0 -10 205 -9 596 1 500 3 597 15 605 18 11 29 -35 17
-68z m107 -623 c0 -530 -3 -683 -12 -697 -14 -19 -14 -19 -19 17 -6 50 -5
1346 2 1364 5 13 10 14 18 6 8 -8 11 -206 11 -690z m100 -3 c0 -377 -3 -688
-7 -692 -4 -4 -11 -4 -17 -1 -15 10 -15 1376 -1 1376 6 0 8 6 4 13 -6 9 -5 9
7 0 12 -10 14 -110 14 -696z"/>
<path d="M5085 1989 c4 -10 -1 -15 -14 -15 -11 0 -18 3 -15 7 2 4 -7 7 -21 7
-14 0 -22 -5 -18 -11 4 -6 1 -7 -8 -2 -18 12 -89 14 -95 3 -3 -5 -11 -5 -17
-1 -17 11 -50 11 -64 1 -6 -5 -14 -5 -17 0 -4 7 -17 8 -57 3 -4 -1 -7 -386 -7
-856 l0 -855 353 0 353 0 -2 857 -1 857 -27 1 c-16 1 -28 -3 -28 -9 0 -8 -2
-8 -8 0 -8 11 -60 13 -78 1 -6 -3 -14 -3 -18 0 -4 4 -16 8 -27 10 -14 2 -18
-1 -13 -9 5 -9 2 -9 -9 1 -9 7 -17 10 -17 6 0 -4 -7 -2 -15 5 -13 11 -14 10
-10 -1 4 -10 -1 -15 -14 -15 -11 0 -18 3 -15 7 2 4 -7 7 -21 7 -16 0 -22 -5
-18 -12 4 -6 -1 -5 -10 3 -9 7 -17 10 -17 6 0 -4 -7 -2 -15 5 -13 11 -14 10
-10 -1z m-216 -218 c-1 -25 0 -50 1 -56 1 -5 2 -14 1 -20 -2 -14 -2 -290 0
-301 1 -5 1 -13 0 -19 -2 -14 -2 -290 0 -301 1 -5 1 -13 0 -19 -3 -14 -3 -209
0 -221 1 -5 1 -13 0 -19 -3 -14 -3 -209 0 -221 1 -5 1 -13 0 -19 -1 -5 -2 -37
-3 -71 0 -68 -10 -97 -23 -67 -11 23 -13 1363 -2 1370 4 2 5 9 2 14 -3 5 1 6
10 3 11 -5 15 -19 14 -53z m96 -1330 c-5 -12 -8 -12 -22 2 -13 13 -14 19 -4
31 7 8 8 16 4 19 -4 3 -8 301 -8 662 1 566 3 657 15 665 13 8 15 -77 18 -678
1 -378 0 -693 -3 -701z m106 1360 c0 -9 1 -317 1 -684 1 -650 -2 -711 -28
-684 -6 6 -8 1325 -2 1379 2 21 28 12 29 -11z m102 -669 c0 -373 -3 -684 -7
-690 -5 -9 -10 -9 -19 -1 -9 9 -12 173 -10 683 1 369 5 679 9 689 23 61 27
-32 27 -681z m102 2 c0 -377 -3 -691 -7 -697 -23 -36 -27 58 -27 692 0 645 3
720 28 696 3 -4 6 -315 6 -691z m101 0 c0 -376 -3 -690 -7 -696 -5 -7 -12 -9
-16 -4 -4 4 -8 317 -9 694 0 646 3 719 26 696 3 -3 5 -314 6 -690z"/>
<path d="M1500 1632 c-14 -2 -38 -13 -55 -25 -26 -19 -41 -33 -73 -72 -11 -14
-40 -89 -47 -122 -18 -82 -20 -107 -19 -208 1 -129 4 -166 17 -182 5 -7 7 -13
4 -13 -7 0 16 -70 35 -110 27 -55 105 -117 141 -111 4 0 7 -2 7 -7 0 -4 13 -7
30 -8 16 -1 27 2 25 6 -3 4 6 11 20 14 53 13 114 108 121 185 12 139 12 170 1
165 -7 -2 -13 -26 -15 -52 -2 -43 -8 -87 -12 -87 -1 0 -3 -8 -5 -18 -6 -30
-46 -107 -56 -107 -6 0 -7 -4 -4 -10 6 -9 -8 -14 -27 -11 -5 0 -8 -7 -8 -16 0
-14 -2 -15 -9 -4 -5 8 -11 9 -15 3 -8 -13 -46 -11 -46 2 0 5 -3 6 -6 3 -4 -4
-20 3 -36 14 -31 22 -71 93 -84 149 -4 19 -9 42 -11 50 -2 8 -5 47 -7 85 -2
39 -5 75 -6 80 -1 6 -2 12 -1 15 1 3 4 30 7 60 7 77 9 92 18 120 45 138 124
188 213 134 35 -21 78 -107 77 -155 0 -16 5 -25 11 -22 8 2 11 22 8 51 -2 26
-4 63 -6 82 -1 20 -12 48 -24 64 -13 16 -23 26 -23 22 0 -4 -10 2 -22 14 -12
11 -27 19 -33 17 -5 -2 -21 -1 -35 2 -14 4 -36 5 -50 3z"/>
<path d="M3029 1618 c-1 -6 -7 -34 -13 -63 -3 -16 -8 -41 -11 -55 -3 -14 -8
-36 -11 -50 -3 -14 -7 -32 -9 -40 -2 -8 -4 -15 -5 -15 -1 0 -3 -7 -5 -15 -29
-131 -46 -218 -46 -225 0 -2 -6 -23 -14 -45 -8 -22 -14 -43 -14 -45 1 -10 -16
-101 -21 -110 -3 -6 -4 -9 -13 -57 -5 -21 -12 -38 -18 -38 -6 0 -8 -4 -4 -9 3
-5 -4 -12 -15 -16 -11 -3 -20 -14 -20 -24 0 -14 10 -17 63 -16 50 0 64 3 64
15 0 8 -7 20 -15 26 -13 10 -12 52 3 114 2 10 18 85 21 98 1 8 5 16 8 20 11
10 148 8 152 -3 2 -5 13 -51 23 -101 20 -94 21 -131 3 -127 -17 4 -22 -25 -6
-38 13 -10 17 -10 25 2 5 8 9 9 9 4 0 -12 79 -13 98 -2 10 7 10 12 1 23 -6 7
-15 12 -19 9 -8 -5 -29 37 -35 71 -2 11 -4 19 -5 19 -1 0 -3 7 -5 15 -11 56
-17 87 -18 103 -1 9 -5 17 -10 17 -4 0 -6 4 -3 8 3 5 -1 33 -9 63 -9 30 -17
65 -20 79 -5 26 -14 68 -19 85 -1 6 -8 37 -15 70 -7 33 -16 74 -21 90 -5 17
-11 47 -14 68 -4 21 -10 46 -15 55 -4 9 -6 23 -4 30 3 6 0 12 -6 12 -6 0 -11
-1 -12 -2z m9 -190 c7 -54 13 -89 21 -123 10 -39 16 -67 26 -122 3 -16 8 -34
10 -42 4 -9 -1 -12 -15 -8 -11 3 -18 2 -15 -3 3 -4 -6 -7 -20 -6 -14 0 -25 6
-25 11 0 7 -3 7 -8 0 -9 -12 -35 -13 -43 -1 -4 5 -3 23 2 40 5 17 12 47 15 66
9 60 12 75 18 90 3 8 8 29 11 45 5 26 11 53 14 63 2 7 8 0 9 -10z"/>
<path d="M3411 1344 c-17 -7 -31 -19 -31 -25 0 -7 -3 -9 -7 -6 -16 17 -68 -88
-79 -160 -29 -177 34 -345 139 -372 38 -9 90 -47 170 -121 43 -41 55 -49 61
-43 3 4 6 2 6 -3 0 -5 18 -10 40 -10 22 0 40 3 40 8 0 4 4 8 10 8 9 0 37 27
77 74 20 24 3 26 -39 4 -43 -22 -108 -32 -108 -16 0 5 -4 7 -9 4 -5 -3 -26 6
-47 21 -22 14 -58 40 -82 56 l-43 29 25 27 c71 74 98 236 62 376 -12 47 -36
95 -47 95 -6 0 -7 5 -4 10 3 6 2 10 -3 10 -4 0 -17 8 -28 18 -27 26 -66 31
-103 16z m73 -46 c-3 -4 1 -8 10 -8 15 0 53 -69 63 -117 4 -15 7 -66 7 -113 0
-159 -56 -252 -139 -231 -3 0 -7 0 -9 -1 -10 -6 -50 60 -72 117 -11 30 -13
204 -3 211 5 3 7 10 3 15 -3 5 0 17 8 26 7 9 12 17 10 17 -13 4 14 56 34 65
13 6 24 15 24 20 0 6 16 10 35 9 19 -1 32 -5 29 -10z"/>
<path d="M3780 1342 c-46 -22 -89 -88 -106 -162 -19 -81 -5 -248 24 -295 4 -5
7 -13 7 -17 0 -16 71 -85 82 -81 7 3 13 0 13 -6 0 -9 5 -9 21 0 15 8 19 8 15
0 -5 -7 1 -11 14 -11 12 0 19 -4 15 -9 -3 -5 3 -12 13 -15 11 -4 31 -19 45
-34 58 -61 150 -132 131 -101 -6 11 -5 12 7 2 27 -22 72 -4 117 44 23 26 42
50 42 54 0 11 -31 -1 -54 -20 -10 -9 -21 -15 -25 -15 -3 1 -12 -1 -19 -3 -7
-3 -20 1 -29 8 -12 10 -15 10 -9 2 4 -7 3 -13 -3 -13 -5 0 -13 5 -16 10 -4 6
-10 8 -15 5 -5 -3 -15 2 -24 10 -8 9 -17 14 -19 13 -2 -2 -22 13 -46 32 -23
19 -46 34 -50 33 -4 -1 -13 8 -20 20 -8 12 -10 19 -6 15 13 -12 73 68 81 107
1 6 7 29 12 53 10 43 9 165 -2 213 -20 86 -81 163 -136 171 -17 3 -43 -2 -60
-10z m86 -47 c4 -8 9 -13 14 -10 4 2 13 -8 20 -23 7 -15 16 -34 20 -43 14 -28
31 -204 20 -204 -1 0 -3 -16 -5 -35 -5 -53 -42 -131 -65 -137 -11 -3 -20 -9
-20 -14 0 -15 -60 0 -81 20 -11 10 -28 43 -39 74 -45 127 -24 297 44 363 25
25 84 30 92 9z"/>
<path d="M2097 1329 c-3 -12 0 -19 9 -19 8 0 15 -3 16 -7 1 -5 2 -111 3 -236
1 -183 -1 -230 -12 -234 -7 -3 -13 -13 -13 -23 0 -14 9 -17 49 -17 37 0 48 3
47 14 -1 8 -8 18 -15 23 -8 4 -10 13 -7 19 4 6 4 11 -1 11 -13 0 -7 168 7 185
7 9 10 18 6 22 -3 3 -6 1 -6 -5 0 -7 -3 -12 -7 -12 -6 0 -9 145 -4 231 1 10
11 15 31 15 17 0 30 -4 30 -8 0 -5 5 -6 10 -3 16 10 41 -61 39 -108 -4 -71
-37 -125 -71 -119 -3 1 -8 -4 -11 -11 -6 -15 20 -40 28 -27 3 5 12 7 20 3 8
-3 15 0 15 7 0 6 5 8 10 5 13 -8 54 81 46 100 -3 8 -2 16 2 19 6 4 8 61 2 61
-1 0 -4 14 -6 30 -3 17 -9 32 -15 33 -5 2 -9 10 -9 17 0 18 -64 47 -86 38 -12
-5 -15 -3 -9 6 6 11 3 11 -16 0 -13 -7 -26 -11 -29 -9 -31 17 -48 17 -53 -1z"/>
<path d="M2373 1339 c-13 -4 -23 -14 -23 -20 0 -7 3 -10 6 -6 4 3 12 1 19 -6
18 -19 17 -477 -2 -477 -7 0 -13 -8 -13 -18 0 -15 8 -19 45 -19 53 -1 61 7 37
34 -14 17 -17 39 -16 117 1 98 8 122 24 96 6 -8 10 -10 10 -5 0 17 25 -36 50
-108 14 -39 39 -85 58 -105 18 -20 30 -30 26 -22 -7 13 -6 13 10 1 13 -11 19
-12 29 -2 9 10 6 17 -15 33 -16 11 -28 24 -28 29 0 5 -14 37 -30 71 -32 65
-46 118 -32 118 4 0 16 14 25 30 10 17 15 30 11 30 -3 0 -2 6 4 13 13 16 9
126 -6 152 -27 47 -42 58 -82 61 -22 2 -45 6 -52 10 -7 4 -8 3 -4 -4 8 -14 -6
-16 -19 -3 -6 5 -20 5 -32 0z m117 -51 c0 -5 5 -6 10 -3 6 3 10 0 10 -9 0 -8
5 -16 11 -18 9 -3 14 -50 10 -108 -1 -14 -9 -35 -19 -47 -19 -25 -68 -38 -78
-21 -10 15 -11 207 -1 211 20 6 57 4 57 -5z"/>
<path d="M2682 1338 c-10 -10 -8 -16 9 -29 20 -15 21 -23 21 -239 1 -221 0
-224 -22 -242 -30 -24 -19 -33 40 -34 39 -1 49 2 53 17 3 11 2 17 -3 14 -23
-14 -28 32 -27 248 2 206 4 229 20 238 28 16 20 32 -13 27 -16 -3 -30 0 -30 5
0 5 -6 4 -14 -2 -10 -8 -15 -9 -18 -1 -2 7 -7 7 -16 -2z"/>
<path d="M4030 1331 c0 -11 5 -21 12 -23 9 -3 13 -56 14 -199 2 -233 6 -254
58 -301 18 -17 25 -19 42 -17 4 0 11 -5 15 -13 7 -11 9 -11 9 1 0 7 6 11 14 8
16 -6 79 48 85 73 2 8 8 31 12 50 5 19 10 115 10 212 0 161 2 179 18 190 13
10 15 16 7 23 -14 13 -48 16 -40 3 3 -5 -5 -6 -20 -2 -29 7 -34 -7 -11 -26 12
-10 15 -44 15 -189 0 -190 -7 -234 -44 -274 -18 -19 -30 -24 -52 -19 -65 12
-75 49 -78 281 -2 140 1 186 11 196 29 30 2 54 -34 32 -6 -4 -14 -3 -18 3 -10
17 -25 11 -25 -9z"/>
<path d="M4509 1348 c0 -2 -3 -19 -6 -38 -2 -19 -8 -37 -12 -40 -5 -3 -7 -13
-5 -22 1 -10 -2 -20 -6 -23 -5 -3 -7 -14 -5 -25 2 -11 0 -22 -6 -25 -5 -4 -9
-17 -9 -29 0 -13 -7 -39 -15 -59 -8 -19 -11 -37 -8 -40 3 -4 1 -12 -5 -19 -6
-7 -10 -16 -10 -21 0 -48 -32 -150 -56 -178 -25 -30 -20 -36 29 -36 51 0 64
10 42 32 -13 12 -13 22 0 77 8 35 16 65 19 67 8 8 105 8 110 -1 3 -4 7 -18 10
-30 3 -13 8 -34 11 -48 8 -36 6 -64 -7 -68 -5 -2 -10 -9 -10 -17 0 -9 15 -12
49 -11 56 1 68 8 49 27 -25 27 -39 67 -53 150 -2 14 -9 38 -14 52 -6 15 -8 27
-6 27 2 0 0 12 -6 28 -6 15 -13 36 -15 47 -2 11 -7 31 -10 45 -3 14 -7 33 -7
43 -1 9 -5 17 -10 17 -5 0 -7 6 -4 13 2 6 -1 28 -8 47 -7 19 -10 41 -8 48 3 6
0 12 -6 12 -6 0 -11 -1 -12 -2z m18 -182 c1 -12 8 -47 16 -79 14 -55 14 -58
-6 -68 -14 -8 -22 -8 -27 1 -5 8 -10 9 -14 2 -16 -27 -39 8 -25 38 1 3 3 10 4
15 2 6 4 13 5 18 5 15 7 23 14 69 6 36 11 44 20 36 7 -6 13 -21 13 -32z"/>
<path d="M1894 1323 c-1 -10 -4 -31 -7 -48 -5 -28 -8 -39 -22 -95 -3 -11 -7
-29 -10 -41 -2 -11 -7 -29 -10 -39 -3 -10 -7 -27 -9 -37 -2 -10 -10 -38 -16
-63 -7 -25 -14 -54 -16 -65 -1 -11 -3 -20 -4 -20 -1 0 -3 -7 -5 -16 -8 -41
-19 -65 -37 -77 -27 -20 -14 -30 38 -29 41 1 45 3 39 21 -12 41 -12 52 0 94
15 48 15 49 15 60 0 9 106 9 115 0 6 -5 15 -57 19 -110 2 -27 -1 -38 -10 -38
-7 0 -11 -6 -8 -13 6 -15 104 -20 104 -4 0 6 -7 18 -16 28 -13 14 -47 129 -69
232 -2 9 -11 45 -20 80 -9 34 -19 73 -21 87 -3 14 -8 34 -11 45 -7 20 -8 28
-11 53 -3 19 -28 14 -28 -5z m23 -110 c-3 -5 4 -48 14 -97 11 -49 17 -91 14
-94 -3 -3 -21 -7 -40 -8 -32 -1 -52 16 -41 35 3 4 7 18 10 32 18 94 31 139 42
139 3 0 3 -3 1 -7z"/>
<path d="M1306 685 c-9 -26 3 -37 35 -33 16 3 29 1 29 -4 0 -5 5 -6 11 -2 17
10 129 10 133 -1 3 -6 5 -6 5 1 1 7 18 8 50 4 28 -3 48 -3 45 2 -8 12 11 9 24
-4 7 -7 12 -8 12 -2 0 5 23 9 50 9 28 0 50 -3 50 -6 0 -3 23 -3 50 1 28 4 50
2 50 -2 0 -5 6 -6 13 -1 13 8 103 7 118 -2 5 -4 9 -1 9 6 0 8 5 7 17 -2 11
-10 14 -10 9 -1 -9 15 6 16 22 0 8 -8 12 -8 12 -1 0 10 58 9 88 -2 6 -2 12 1
12 7 0 6 6 5 17 -3 11 -10 14 -10 9 -1 -9 15 6 16 22 0 7 -7 12 -8 12 -2 0 5
27 9 60 9 33 0 60 -4 60 -8 0 -5 5 -5 11 -1 17 10 129 10 133 -1 3 -6 5 -6 5
1 1 7 18 8 50 4 28 -3 48 -3 45 2 -8 12 11 9 24 -4 7 -7 12 -8 12 -2 0 5 23 9
50 9 28 0 50 -3 50 -6 0 -3 23 -3 50 1 28 4 50 2 50 -2 0 -5 6 -6 12 -1 15 8
136 6 151 -4 6 -3 7 -1 3 5 -9 16 7 15 22 0 8 -8 12 -8 12 -1 0 10 58 9 88 -2
6 -2 12 1 12 7 0 6 6 5 17 -3 11 -10 14 -10 9 -1 -9 15 6 16 22 0 7 -7 12 -8
12 -2 0 7 16 8 45 4 24 -4 42 -3 40 1 -3 4 13 5 35 2 35 -5 40 -3 40 15 0 16
-8 21 -40 24 -22 2 -40 1 -40 -2 0 -7 -391 -2 -398 4 -3 3 -11 1 -18 -5 -7 -5
-15 -6 -18 -1 -3 5 -28 6 -55 2 -32 -4 -52 -2 -55 4 -3 7 -5 7 -5 1 -1 -6 -30
-8 -76 -5 -41 3 -75 3 -75 0 0 -10 -55 -5 -62 5 -5 6 -8 4 -8 -5 0 -13 -1 -13
-10 0 -5 8 -10 11 -10 5 0 -11 -76 -12 -87 -1 -3 3 -12 1 -19 -5 -7 -5 -14 -6
-17 -2 -3 4 -103 6 -222 3 -119 -3 -219 -1 -222 3 -3 4 -11 3 -18 -3 -7 -6
-16 -7 -19 -2 -3 5 -28 6 -55 2 -32 -4 -52 -2 -55 4 -3 7 -5 7 -5 1 -1 -6 -31
-8 -81 -5 -44 3 -80 2 -80 -2 0 -11 -23 -5 -32 7 -5 6 -8 4 -8 -5 0 -13 -1
-13 -10 0 -9 13 -10 13 -10 0 0 -13 -1 -13 -10 0 -8 12 -10 12 -10 1 0 -11 -3
-11 -15 -1 -8 7 -15 8 -15 3 0 -10 -40 -10 -57 0 -7 4 -14 3 -18 -3 -4 -6 -12
-7 -18 -3 -19 11 -47 11 -47 -1 0 -6 -4 -5 -9 2 -7 11 -10 10 -15 -3z"/>
<path d="M4277 687 c-11 -28 9 -39 62 -36 28 2 53 0 55 -6 3 -6 5 -6 5 1 1 7
18 8 50 4 28 -3 48 -3 45 2 -8 12 11 9 24 -4 7 -7 12 -8 12 -2 0 12 93 12 102
-1 5 -6 8 -4 8 5 0 12 2 13 9 1 7 -11 11 -10 20 7 9 18 8 23 -9 32 -15 8 -20
8 -20 -2 0 -9 -3 -9 -10 2 -5 8 -10 11 -10 5 0 -6 -28 -8 -75 -5 -41 3 -75 3
-75 0 0 -10 -55 -5 -62 5 -5 6 -8 4 -8 -5 0 -13 -1 -13 -10 0 -5 8 -10 11 -10
5 0 -11 -71 -12 -88 -1 -5 3 -12 0 -15 -7z"/>
<path d="M2394 521 c4 -5 -3 -11 -15 -13 -21 -3 -37 -38 -18 -38 5 0 9 7 9 15
0 11 7 14 25 11 32 -6 39 6 13 23 -11 7 -17 8 -14 2z"/>
<path d="M3890 513 c0 -13 8 -23 21 -26 20 -5 20 -5 3 16 -11 12 -20 24 -21
26 -2 2 -3 -5 -3 -16z"/>
<path d="M2034 504 c-18 -13 -16 -14 16 -12 19 2 36 -1 37 -6 0 -5 8 -13 17
-18 9 -5 13 -14 10 -20 -4 -6 0 -14 7 -19 11 -6 11 -11 2 -20 -11 -11 -7 -39
6 -39 5 0 7 56 2 63 -2 1 -5 13 -7 27 -3 14 -9 27 -14 28 -6 2 -7 9 -3 15 3 7
3 9 -1 5 -5 -4 -18 -3 -31 2 -16 6 -29 4 -41 -6z"/>
<path d="M2680 508 c0 -5 -4 -6 -10 -3 -5 3 -11 -1 -11 -9 -1 -9 -2 -26 -3
-38 -2 -21 8 -41 49 -92 8 -11 18 -17 21 -13 4 3 -1 13 -10 22 -9 9 -13 22 -9
28 3 7 3 9 -2 5 -12 -11 -37 21 -37 48 0 35 17 51 37 34 8 -7 18 -10 22 -6 3
3 1 6 -6 6 -7 0 -10 4 -7 9 3 5 -3 11 -14 14 -11 3 -20 1 -20 -5z"/>
<path d="M3219 504 c-13 -7 -20 -13 -15 -14 5 0 2 -7 -5 -16 -14 -17 -23 -124
-11 -124 5 0 7 23 6 50 -2 28 2 50 7 50 6 0 8 4 5 9 -3 5 1 12 10 15 8 3 12
10 9 16 -7 11 15 13 39 4 9 -3 13 -10 10 -15 -3 -5 0 -9 5 -9 15 0 14 27 -1
37 -20 12 -33 12 -59 -3z"/>
<path d="M3869 515 c-1 -3 -2 -9 -3 -14 0 -5 -4 -13 -8 -17 -12 -11 -9 -34 3
-34 6 0 9 6 6 14 -3 8 -3 17 1 20 7 8 12 36 6 36 -2 0 -5 -2 -5 -5z"/>
<path d="M2953 490 c-1 -11 2 -20 7 -20 4 0 7 7 6 15 -3 23 -12 26 -13 5z"/>
<path d="M3530 510 c-8 -26 -3 -60 8 -60 7 0 10 -5 7 -10 -4 -6 -9 -8 -13 -6
-10 6 -8 -116 2 -132 4 -7 2 -12 -5 -12 -7 0 -10 -3 -6 -6 3 -3 11 -3 17 1 8
5 8 10 0 20 -8 10 -7 14 2 18 7 3 8 6 2 6 -10 1 -10 24 -1 83 4 25 17 35 18
15 1 -9 3 -21 4 -27 1 -5 3 -15 4 -22 1 -8 4 -9 11 -2 7 7 4 23 -8 50 -10 21
-23 50 -30 64 -6 14 -11 23 -12 20z"/>
<path d="M3619 508 c-1 -2 -3 -37 -4 -78 -1 -41 -5 -84 -8 -96 -4 -11 -1 -28
6 -38 11 -14 13 2 13 98 -1 102 -2 123 -7 114z"/>
<path d="M2350 440 c0 -11 4 -20 8 -20 4 0 8 9 8 20 0 11 -4 20 -8 20 -4 0 -8
-9 -8 -20z"/>
<path d="M2950 425 c0 -8 4 -15 8 -15 5 0 9 7 9 15 0 8 -4 15 -9 15 -4 0 -8
-7 -8 -15z"/>
<path d="M3860 424 c0 -8 5 -12 10 -9 6 3 10 -1 10 -10 0 -8 7 -18 15 -21 8
-4 15 -12 15 -20 0 -8 4 -14 8 -14 5 0 9 7 9 15 0 8 -4 15 -9 15 -5 0 -13 11
-20 24 -13 29 -38 42 -38 20z"/>
<path d="M2024 410 c0 -11 4 -20 8 -20 4 0 8 9 8 20 0 11 -4 20 -8 20 -4 0 -8
-9 -8 -20z"/>
<path d="M2352 380 c0 -16 3 -30 7 -30 5 0 7 11 6 25 -2 14 0 23 5 20 4 -3 19
-1 32 4 21 9 20 10 -13 10 -33 1 -36 -1 -37 -29z"/>
<path d="M2957 393 c-10 -9 -9 -23 1 -23 5 0 9 7 9 15 0 17 -1 18 -10 8z"/>
<path d="M3257 393 c-10 -10 -8 -25 2 -18 5 3 17 -2 26 -11 14 -14 14 -19 2
-37 -23 -35 -43 -43 -61 -24 -9 8 -16 20 -16 26 0 6 -4 11 -10 11 -15 0 -12
-9 11 -41 18 -26 69 -44 54 -19 -3 6 0 10 8 10 18 0 29 24 32 65 2 37 -27 60
-48 38z"/>
<path d="M2031 364 c0 -11 3 -14 6 -6 3 7 2 16 -1 19 -3 4 -6 -2 -5 -13z"/>
<path d="M3591 354 c0 -11 3 -14 6 -6 3 7 2 16 -1 19 -3 4 -6 -2 -5 -13z"/>
<path d="M2108 333 c-8 -15 -21 -27 -30 -27 -11 1 -14 -4 -10 -15 5 -14 4 -14
-11 -2 -9 7 -17 22 -17 33 0 10 -4 17 -8 14 -5 -3 -7 -18 -4 -35 3 -23 8 -28
25 -26 39 5 53 15 65 47 15 40 8 48 -10 11z"/>
<path d="M2950 350 c0 -5 5 -10 11 -10 5 0 7 5 4 10 -3 6 -8 10 -11 10 -2 0
-4 -4 -4 -10z"/>
<path d="M2350 322 c0 -12 4 -22 9 -22 10 0 9 26 -2 36 -4 4 -7 -2 -7 -14z"/>
<path d="M2715 330 c3 -5 8 -10 11 -10 2 0 4 5 4 10 0 6 -5 10 -11 10 -5 0 -7
-4 -4 -10z"/>
<path d="M3915 330 c3 -5 8 -10 11 -10 2 0 4 5 4 10 0 6 -5 10 -11 10 -5 0 -7
-4 -4 -10z"/>
<path d="M2653 310 c5 -29 22 -43 45 -36 21 7 39 36 22 36 -6 0 -10 -5 -10
-11 0 -6 -6 -9 -14 -6 -8 3 -17 1 -20 -6 -2 -7 -5 -2 -5 10 -1 12 -6 25 -11
28 -6 4 -9 -3 -7 -15z"/>
<path d="M2950 319 c0 -5 5 -7 10 -4 6 3 10 8 10 11 0 2 -4 4 -10 4 -5 0 -10
-5 -10 -11z"/>
<path d="M3850 315 c7 -8 9 -15 6 -15 -4 0 0 -7 8 -16 18 -17 51 -11 60 11 3
8 1 15 -4 15 -6 0 -10 -4 -10 -9 0 -6 -9 -9 -20 -8 -11 1 -20 7 -20 13 0 7 -7
15 -16 18 -14 5 -15 4 -4 -9z"/>
<path d="M2366 290 c-15 -5 -16 -9 -7 -15 8 -4 17 -2 22 6 5 8 9 9 9 4 0 -6 9
-11 20 -12 18 -2 30 16 13 18 -5 0 -15 2 -23 3 -8 2 -24 0 -34 -4z"/>
<path d="M2950 289 c0 -5 5 -7 10 -4 6 3 10 8 10 11 0 2 -4 4 -10 4 -5 0 -10
-5 -10 -11z"/>
</g>
</svg>
